<svg id="HEART" xmlns="http://www.w3.org/2000/svg" width="135.031" height="126" viewBox="0 0 135.031 126">
  <defs>
    <style>
      .cls-1 {
        fill: #d44250;
      }

      .cls-1, .cls-2, .cls-3 {
        fill-rule: evenodd;
      }

      .cls-2 {
        fill: #fff;
      }

      .cls-3 {
        fill: #1c2841;
        fill-opacity: 0;
        stroke: #f58b75;
        stroke-linejoin: round;
        stroke-width: 2px;
      }
    </style>
  </defs>
  <path id="FLAQUE_D_EAU_copie_3" data-name="FLAQUE D&apos;EAU copie 3" class="cls-1" d="M751.9,5289.36c-2.3-4.07-5.867-5.33-9.265-7.94-4.14-3.19-6.926-5.49-5.851-9.51,1.742-6.51,2.466-22.5-24.6-20.8-9.8.62-17.7,5.2-23.55,9.85-5.019,3.99-13.83,4.25-20.981,5.13a158.55,158.55,0,0,0-26.276,5.29c-17.42,5.28-23.209,13.13-23.376,23.37-0.051,3.12.234,8.06,8.163,13.9,10.762,7.93,27.148,8.99,46.975,5.36,4.5-.82,8.765-2.11,13.172-3.08a91.944,91.944,0,0,1,14.037-1.94c11.041-.67,22.4.59,32.893-1.52a39.837,39.837,0,0,0,14.506-5.82C752.644,5298.32,754.337,5293.68,751.9,5289.36Z" transform="translate(-618 -5190)"/>
  <path id="Forme_592" data-name="Forme 592" class="cls-2" d="M708.524,5214.45c-7.882-4.35-16.023,2.31-16.981,4.16-1.638-5.73-5.328-17.26-16.47-23.84-14.969-8.83-20.177,17.34-16.827,33.77,6.079,29.81,21.46,46.98,33.15,59.45,0,0,22.941-10.17,29.72-32.82C727.069,5235.28,717.933,5219.65,708.524,5214.45Z" transform="translate(-618 -5190)"/>
  <path id="Forme_591" data-name="Forme 591" class="cls-3" d="M692.241,5214.45c-7.882-4.35-16.023,2.31-16.981,4.16-1.639-5.73-5.328-17.26-16.471-23.84-14.969-8.83-20.177,17.34-16.826,33.77,6.079,29.81,21.46,46.98,33.149,59.45,0,0,22.942-10.17,29.72-32.82C710.786,5235.28,701.649,5219.65,692.241,5214.45Z" transform="translate(-618 -5190)"/>
</svg>
