<svg id="ENVELOPPE" xmlns="http://www.w3.org/2000/svg" width="126" height="115" viewBox="0 0 126 115">
  <defs>
    <style>
      .cls-1 {
        fill: #ffe450;
      }

      .cls-1, .cls-2, .cls-3, .cls-4 {
        fill-rule: evenodd;
      }

      .cls-2, .cls-3 {
        fill: #fff;
      }

      .cls-2 {
        fill-opacity: 0;
        stroke: #38383a;
        stroke-linejoin: round;
        stroke-width: 2px;
      }

      .cls-4 {
        fill: #38383a;
      }
    </style>
  </defs>
  <path id="FLAQUE_D_EAU_copie_2" data-name="FLAQUE D&apos;EAU copie 2" class="cls-1" d="M999.027,4963.03c-2.01-3.51-5.129-4.59-8.1-6.84-3.618-2.74-6.053-4.73-5.114-8.19,1.522-5.6,2.156-19.38-21.5-17.91-8.561.53-15.471,4.48-20.582,8.48-4.386,3.43-12.086,3.66-18.337,4.42a140.257,140.257,0,0,0-22.964,4.56c-15.224,4.55-20.284,11.31-20.429,20.12-0.044,2.69.2,6.95,7.134,11.98,9.406,6.83,23.726,7.74,41.055,4.62,3.934-.71,7.66-1.82,11.511-2.66a81.67,81.67,0,0,1,12.268-1.67c9.649-.58,19.578.51,28.747-1.31a35.1,35.1,0,0,0,12.678-5.01C999.679,4970.75,1001.16,4966.75,999.027,4963.03Z" transform="translate(-882 -4874)"/>
  <path id="Forme_704" data-name="Forme 704" class="cls-2" d="M902,4924.26v60.76l81.025-47.25v-60.76Z" transform="translate(-882 -4874)"/>
  <path id="Forme_705_copie" data-name="Forme 705 copie" class="cls-3" d="M904,4930.44L950.856,4944l34.138-59.99Z" transform="translate(-882 -4874)"/>
  <path id="Forme_705" data-name="Forme 705" class="cls-2" d="M902,4924.44L948.856,4938l35.138-60.99Z" transform="translate(-882 -4874)"/>
  <path id="ZIG_ZAG_copie_3" data-name="ZIG ZAG copie 3" class="cls-4" d="M998.994,4913.67a0.984,0.984,0,0,1,.3-0.71l6.281-5.96-6.281-5.95a1.008,1.008,0,0,1,0-1.42l6.281-5.96-6.281-5.96a0.971,0.971,0,0,1-.025-1.39,1.01,1.01,0,0,1,1.406-.03l7.03,6.67a1,1,0,0,1,.3.71h0a1,1,0,0,1-.3.71l-6.28,5.96,6.28,5.96a1,1,0,0,1,0,1.41l-6.28,5.96,6.28,5.96a1,1,0,0,1,.3.71h0a0.976,0.976,0,0,1-.3.7l-7.03,6.67a1.011,1.011,0,0,1-1.407-.03,0.972,0.972,0,0,1,.027-1.39l6.28-5.95-6.281-5.96A0.984,0.984,0,0,1,998.994,4913.67Z" transform="translate(-882 -4874)"/>
  <path id="Forme_573_copie_4" data-name="Forme 573 copie 4" class="cls-4" d="M902.958,4897.88l4.567-4.57a1.146,1.146,0,0,0-1.622-1.62l-4.566,4.57-4.567-4.57a1.146,1.146,0,0,0-1.622,1.62l4.567,4.57-4.239,4.24a1.146,1.146,0,1,0,1.622,1.62l4.239-4.24,4.239,4.24a1.146,1.146,0,1,0,1.621-1.62Z" transform="translate(-882 -4874)"/>
</svg>
