<svg id="TEL" xmlns="http://www.w3.org/2000/svg" width="139" height="105" viewBox="0 0 139 105">
  <defs>
    <style>
      .cls-1 {
        fill: #ffe450;
      }

      .cls-1, .cls-2, .cls-3, .cls-4, .cls-5 {
        fill-rule: evenodd;
      }

      .cls-2, .cls-3 {
        fill: #38383a;
      }

      .cls-3, .cls-5 {
        fill-opacity: 0;
        stroke: #38383a;
        stroke-linejoin: round;
        stroke-width: 2px;
      }

      .cls-4, .cls-5 {
        fill: #fff;
      }
    </style>
  </defs>
  <path id="FLAQUE_D_EAU_copie_2" data-name="FLAQUE D&apos;EAU copie 2" class="cls-1" d="M738.027,4964.03c-2.01-3.51-5.129-4.59-8.1-6.84-3.618-2.74-6.053-4.73-5.114-8.19,1.523-5.6,2.156-19.38-21.5-17.91-8.561.53-15.471,4.48-20.582,8.48-4.386,3.43-12.086,3.66-18.337,4.42a140.257,140.257,0,0,0-22.964,4.56c-15.224,4.55-20.283,11.31-20.429,20.12-0.044,2.69.2,6.95,7.134,11.98,9.406,6.83,23.726,7.74,41.055,4.62,3.934-.71,7.66-1.82,11.511-2.66a81.67,81.67,0,0,1,12.268-1.67c9.649-.58,19.578.51,28.747-1.31a35.1,35.1,0,0,0,12.678-5.01C738.679,4971.75,740.159,4967.75,738.027,4964.03Z" transform="translate(-621 -4882)"/>
  <path id="ZIG_ZAG_copie_3" data-name="ZIG ZAG copie 3" class="cls-2" d="M750.994,4970.67a1,1,0,0,1,.3-0.71l6.279-5.96-6.279-5.95a1.008,1.008,0,0,1,0-1.42l6.28-5.96-6.28-5.96a0.971,0.971,0,0,1-.025-1.39,1.013,1.013,0,0,1,1.409-.03l7.024,6.67a0.984,0.984,0,0,1,.3.71h0a0.984,0.984,0,0,1-.3.71l-6.279,5.96,6.279,5.96a1,1,0,0,1,0,1.41l-6.279,5.96,6.279,5.96a0.984,0.984,0,0,1,.3.71h0a0.959,0.959,0,0,1-.306.7l-7.024,6.67a1.014,1.014,0,0,1-1.409-.03,0.972,0.972,0,0,1,.027-1.39l6.278-5.95-6.279-5.96A0.984,0.984,0,0,1,750.994,4970.67Z" transform="translate(-621 -4882)"/>
  <path id="Forme_731" data-name="Forme 731" class="cls-3" d="M708.929,4913.74c4.446,2.58,8.07,8.88,8.055,14l-0.1,34.49c-0.014,5.11-3.662,7.21-8.108,4.64l-17.815-10.33a1.076,1.076,0,0,1-.56.2l-22.744,2.39a1.293,1.293,0,0,1-1.31-1.99l4.356-12.33-9.636-5.59c-4.446-2.57-8.07-8.88-8.055-14l0.1-34.48c0.015-5.13,3.662-7.22,8.108-4.64Z" transform="translate(-621 -4882)"/>
  <path id="Forme_732" data-name="Forme 732" class="cls-4" d="M726.968,4911.84a11.081,11.081,0,0,1,5.043,8.69l-0.061,21.41c-0.009,3.19-2.3,4.48-5.075,2.88l-6.018-3.46,2.671,10.77c0.178,0.72.06,1.01-.265,0.83a2.413,2.413,0,0,1-.555-0.55l-14.174-17.82a3.169,3.169,0,0,1-.343-0.52l-11.133-6.41a11.113,11.113,0,0,1-5.042-8.7l0.06-21.41c0.009-3.19,2.295-4.47,5.076-2.87Z" transform="translate(-621 -4882)"/>
  <path id="Forme_732_copie" data-name="Forme 732 copie" class="cls-5" d="M735.968,4911.84a11.081,11.081,0,0,1,5.043,8.69l-0.061,21.41c-0.009,3.19-2.3,4.48-5.075,2.88l-6.018-3.46,2.671,10.77c0.178,0.72.06,1.01-.264,0.83a2.394,2.394,0,0,1-.556-0.55l-14.174-17.82a3.169,3.169,0,0,1-.343-0.52l-11.133-6.41a11.116,11.116,0,0,1-5.042-8.7l0.06-21.41c0.009-3.19,2.295-4.47,5.076-2.87Zm-24.854,6.82c1.777,1.02,3.232.2,3.238-1.83a7.048,7.048,0,0,0-3.217-5.55c-1.776-1.03-3.222-.21-3.228,1.84a7.053,7.053,0,0,0,3.207,5.54h0Zm9.886,5.69c1.777,1.02,3.223.2,3.229-1.84a7.072,7.072,0,0,0-3.208-5.55c-1.776-1.02-3.222-.2-3.228,1.85a7.068,7.068,0,0,0,3.207,5.54h0Zm9.886,5.69c1.777,1.02,3.223.2,3.229-1.84a7.072,7.072,0,0,0-3.208-5.55c-1.776-1.02-3.222-.2-3.228,1.85a7.068,7.068,0,0,0,3.207,5.54h0Z" transform="translate(-621 -4882)"/>
  <path id="Forme_573_copie_3" data-name="Forme 573 copie 3" class="cls-2" d="M635.958,4914.88l4.567-4.57a1.146,1.146,0,0,0-1.622-1.62l-4.566,4.57-4.567-4.57a1.146,1.146,0,0,0-1.622,1.62l4.567,4.57-4.239,4.24a1.146,1.146,0,1,0,1.622,1.62l4.239-4.24,4.239,4.24a1.146,1.146,0,1,0,1.621-1.62Z" transform="translate(-621 -4882)"/>
</svg>
