<svg id="_1" data-name="1" xmlns="http://www.w3.org/2000/svg" width="199.219" height="181.97" viewBox="0 0 199.219 181.97">
  <defs>
    <style>
      .cls-1 {
        fill: #8ca5e7;
      }

      .cls-1, .cls-2, .cls-3 {
        fill-rule: evenodd;
      }

      .cls-2 {
        fill: #b9dadc;
      }

      .cls-3 {
        fill: #38383a;
      }
    </style>
  </defs>
  <path id="Forme_98" data-name="Forme 98" class="cls-1" d="M321.616,2577.2c-55.015,0-99.614,23.24-99.614,51.9s44.6,51.89,99.614,51.89,99.615-23.23,99.615-51.89-44.6-51.9-99.615-51.9" transform="translate(-222 -2499.03)"/>
  <path id="Forme_90" data-name="Forme 90" class="cls-2" d="M328.193,2648.92L303.6,2634.5v-55.66q0-10.155.369-18.34a24.794,24.794,0,0,1-5.642,3.45l-10.179,3.88-12.57-25.49,30.783-11.37,21.83,12.81v105.14Z" transform="translate(-222 -2499.03)"/>
  <path id="Forme_91" data-name="Forme 91" class="cls-3" d="M332.368,2660.23a1.271,1.271,0,0,1,0,2.4,4.515,4.515,0,0,1-4.111,0,1.271,1.271,0,0,1,0-2.4A4.515,4.515,0,0,1,332.368,2660.23Zm10.75-6.26a1.271,1.271,0,0,1,0,2.4,4.517,4.517,0,0,1-4.112,0,1.271,1.271,0,0,1,0-2.4A4.517,4.517,0,0,1,343.118,2653.97Zm10.75-6.26a1.272,1.272,0,0,1,0,2.4,4.515,4.515,0,0,1-4.111,0,1.271,1.271,0,0,1,0-2.4A4.517,4.517,0,0,1,353.868,2647.71Zm-32.343,6.2a1.264,1.264,0,0,1,0,2.39,4.515,4.515,0,0,1-4.111,0,1.264,1.264,0,0,1,0-2.39A4.515,4.515,0,0,1,321.525,2653.91Zm10.75-6.26a1.264,1.264,0,0,1,0,2.39,4.515,4.515,0,0,1-4.111,0,1.264,1.264,0,0,1,0-2.39A4.515,4.515,0,0,1,332.275,2647.65Zm10.75-6.26a1.264,1.264,0,0,1,0,2.39,4.515,4.515,0,0,1-4.111,0,1.264,1.264,0,0,1,0-2.39A4.517,4.517,0,0,1,343.025,2641.39Zm10.749-6.26a1.271,1.271,0,0,1,0,2.4,4.515,4.515,0,0,1-4.111,0,1.271,1.271,0,0,1,0-2.4A4.515,4.515,0,0,1,353.774,2635.13Zm-43,12.52a1.264,1.264,0,0,1,0,2.39,4.517,4.517,0,0,1-4.112,0,1.264,1.264,0,0,1,0-2.39A4.517,4.517,0,0,1,310.776,2647.65Zm-10.75-6.26a1.264,1.264,0,0,1,0,2.39,4.515,4.515,0,0,1-4.111,0,1.264,1.264,0,0,1,0-2.39A4.515,4.515,0,0,1,300.026,2641.39Z" transform="translate(-222 -2499.03)"/>
  <path id="Forme_89" data-name="Forme 89" class="cls-3" d="M326.116,2511.15l-0.414.24-30.6,11.01L269,2537.66l-0.942.34,13.412,26.52,11.024-4.1a29.76,29.76,0,0,0,4.166-2.26c-0.187,4.8-.283,10.12-0.283,15.85v54.66l25.491,14.57,26.988-15.79v-103.3Zm-30.262,13.03,20.747-7.47-16.917,9.9-1.467.53-19.274,6.94Zm25.033,116.28-22.566-12.9v-53.55c0-6.52.123-12.5,0.366-17.78l0.1-2.17-1.691,1.38a23.813,23.813,0,0,1-5.347,3.2l-9.326,3.47-11.649-23.04,29.231-10.52,20.882,11.94v99.97ZM302.03,2527.48l24.1-14.1,19.825,11.33-8.282,4.85-15.815,9.26Z" transform="translate(-222 -2499.03)"/>
  <path id="ZIG_ZAG" data-name="ZIG ZAG" class="cls-3" d="M368.518,2530.74a1.11,1.11,0,0,1,.348-0.81l7.165-6.84-7.165-6.83a1.152,1.152,0,0,1,0-1.62l7.166-6.84-7.166-6.84a1.114,1.114,0,0,1-.029-1.59,1.146,1.146,0,0,1,1.609-.03l8.014,7.65a1.11,1.11,0,0,1,.348.81h0a1.127,1.127,0,0,1-.348.81l-7.165,6.84,7.165,6.83a1.152,1.152,0,0,1,0,1.62l-7.165,6.84,7.165,6.83a1.11,1.11,0,0,1,.348.81h0a1.124,1.124,0,0,1-.349.81l-8.015,7.64a1.145,1.145,0,0,1-1.608-.03,1.115,1.115,0,0,1,.031-1.59l7.164-6.83-7.165-6.83A1.144,1.144,0,0,1,368.518,2530.74Z" transform="translate(-222 -2499.03)"/>
  <path id="Forme_573" data-name="Forme 573" class="cls-3" d="M266.453,2627.82l5.635-5.64a1.415,1.415,0,0,0-2-2l-5.635,5.64-5.635-5.64a1.415,1.415,0,0,0-2,2l5.635,5.64-5.231,5.23a1.418,1.418,0,1,0,2,2.01l5.231-5.24,5.23,5.24a1.418,1.418,0,1,0,2-2.01Z" transform="translate(-222 -2499.03)"/>
</svg>
