<svg id="ILLUSTRATION" xmlns="http://www.w3.org/2000/svg" width="407.75" height="315" viewBox="0 0 407.75 315">
  <defs>
    <style>
      .cls-1, .cls-4, .cls-5 {
        fill: #b9dadc;
      }

      .cls-1, .cls-2, .cls-3, .cls-4, .cls-5, .cls-6, .cls-7, .cls-8, .cls-9 {
        fill-rule: evenodd;
      }

      .cls-1 {
        mix-blend-mode: multiply;
      }

      .cls-2, .cls-7 {
        fill: #38383a;
      }

      .cls-3 {
        fill: #fff;
      }

      .cls-5, .cls-9 {
        fill-opacity: 0;
        stroke-width: 2px;
      }

      .cls-5, .cls-7, .cls-9 {
        stroke: #38383a;
        stroke-linejoin: round;
      }

      .cls-6 {
        fill: #ffe0f2;
      }

      .cls-7 {
        stroke-width: 1px;
      }

      .cls-8, .cls-9 {
        fill: #ffe450;
      }
    </style>
  </defs>
  <path id="FLAQUE_D_EAU" data-name="FLAQUE D&apos;EAU" class="cls-1" d="M1126.15,3574.58c-6.52-11.42-16.65-14.94-26.29-22.27-11.74-8.92-19.65-15.39-16.6-26.65,4.94-18.24,7-63.07-69.79-58.3-27.793,1.73-50.226,14.58-66.818,27.6-14.241,11.18-39.238,11.92-59.53,14.38-25.053,3.02-50.815,7.75-74.551,14.85-49.426,14.79-65.851,36.8-66.324,65.49-0.144,8.75.663,22.61,23.161,38.98,30.536,22.22,77.025,25.19,133.282,15.02,12.773-2.31,24.868-5.93,37.372-8.63a262.588,262.588,0,0,1,39.827-5.45c31.331-1.89,63.561,1.65,93.331-4.25,15.65-3.1,29.96-8.78,41.15-16.31C1128.27,3599.69,1133.07,3586.69,1126.15,3574.58Z" transform="translate(-746.25 -3467)"/>
  <g id="WEB">
    <path id="Forme_31" data-name="Forme 31" class="cls-2" d="M987.764,3755.99L1143,3666.27v-12.82l-155.236,89.72v12.82Zm0-12.82V3756l-112.05-64.78-6.234-3.59v-0.01l-4.783-2.76-3.512-2.03L766,3627.81V3615l97.681,56.46,16.431,9.5Z" transform="translate(-746.25 -3467)"/>
    <path id="Forme_32" data-name="Forme 32" class="cls-2" d="M921,3525.39l221.879,127.86,11.12-6.4L932.1,3519Zm221.879,127.86,0.06,12.75,11.06-6.37v-12.78Z" transform="translate(-746.25 -3467)"/>
    <path id="Forme_33" data-name="Forme 33" class="cls-3" d="M766,3615.76L921.235,3526,1143,3654.23l-155.235,89.76Z" transform="translate(-746.25 -3467)"/>
    <g id="_....." data-name=".....">
      <g id="Groupe_2" data-name="Groupe 2">
        <path id="_..._copie" data-name="... copie" class="cls-2" d="M765.8,3635.66c0,0.93-1.3,1.67-2.9,1.67s-2.9-.74-2.9-1.67,1.3-1.67,2.9-1.67S765.8,3634.74,765.8,3635.66Zm8.809,5.34c0,0.92-1.3,1.67-2.9,1.67s-2.9-.75-2.9-1.67,1.3-1.67,2.9-1.67S774.611,3640.08,774.611,3641Zm9.377,5.34c0,0.92-1.3,1.67-2.9,1.67s-2.9-.75-2.9-1.67,1.3-1.67,2.9-1.67S783.988,3645.42,783.988,3646.34Z" transform="translate(-746.25 -3467)"/>
        <path id="_..._copie_2" data-name="... copie 2" class="cls-2" d="M792.611,3652c0,0.92-1.3,1.67-2.9,1.67s-2.9-.75-2.9-1.67,1.3-1.67,2.9-1.67S792.611,3651.08,792.611,3652Zm9.377,5.34c0,0.92-1.3,1.67-2.9,1.67s-2.9-.75-2.9-1.67,1.3-1.67,2.9-1.67S801.988,3656.42,801.988,3657.34Z" transform="translate(-746.25 -3467)"/>
        <path id="_..._copie_3" data-name="... copie 3" class="cls-2" d="M811.611,3663c0,0.92-1.3,1.67-2.9,1.67s-2.9-.75-2.9-1.67,1.3-1.67,2.9-1.67S811.611,3662.08,811.611,3663Zm9.377,5.34c0,0.92-1.3,1.67-2.9,1.67s-2.9-.75-2.9-1.67,1.3-1.67,2.9-1.67S820.988,3667.42,820.988,3668.34Z" transform="translate(-746.25 -3467)"/>
        <path id="_..._copie_4" data-name="... copie 4" class="cls-2" d="M829.611,3674c0,0.92-1.3,1.67-2.9,1.67s-2.9-.75-2.9-1.67,1.3-1.67,2.9-1.67S829.611,3673.08,829.611,3674Zm9.377,5.34c0,0.92-1.3,1.67-2.9,1.67s-2.9-.75-2.9-1.67,1.3-1.67,2.9-1.67S838.988,3678.42,838.988,3679.34Z" transform="translate(-746.25 -3467)"/>
        <path id="_..._copie_5" data-name="... copie 5" class="cls-2" d="M847.8,3684.66c0,0.93-1.3,1.67-2.9,1.67s-2.9-.74-2.9-1.67,1.3-1.67,2.9-1.67S847.8,3683.74,847.8,3684.66Zm8.809,5.34c0,0.92-1.3,1.67-2.9,1.67s-2.9-.75-2.9-1.67,1.3-1.67,2.9-1.67S856.611,3689.08,856.611,3690Zm9.377,5.34c0,0.92-1.3,1.67-2.9,1.67s-2.9-.75-2.9-1.67,1.3-1.67,2.9-1.67S865.988,3694.42,865.988,3695.34Z" transform="translate(-746.25 -3467)"/>
        <path id="_..._copie_6" data-name="... copie 6" class="cls-2" d="M874.611,3701c0,0.92-1.3,1.67-2.9,1.67s-2.9-.75-2.9-1.67,1.3-1.67,2.9-1.67S874.611,3700.08,874.611,3701Zm9.377,5.34c0,0.92-1.3,1.67-2.9,1.67s-2.9-.75-2.9-1.67,1.3-1.67,2.9-1.67S883.988,3705.42,883.988,3706.34Z" transform="translate(-746.25 -3467)"/>
        <path id="_..._copie_7" data-name="... copie 7" class="cls-2" d="M893.611,3712c0,0.92-1.3,1.67-2.9,1.67s-2.9-.75-2.9-1.67,1.3-1.67,2.9-1.67S893.611,3711.08,893.611,3712Zm9.377,5.34c0,0.92-1.3,1.67-2.9,1.67s-2.9-.75-2.9-1.67,1.3-1.67,2.9-1.67S902.988,3716.42,902.988,3717.34Z" transform="translate(-746.25 -3467)"/>
        <path id="_..._copie_8" data-name="... copie 8" class="cls-2" d="M911.611,3723c0,0.92-1.3,1.67-2.9,1.67s-2.9-.75-2.9-1.67,1.3-1.67,2.9-1.67S911.611,3722.08,911.611,3723Zm9.377,5.34c0,0.92-1.3,1.67-2.9,1.67s-2.9-.75-2.9-1.67,1.3-1.67,2.9-1.67S920.988,3727.42,920.988,3728.34Z" transform="translate(-746.25 -3467)"/>
        <path id="_..._copie_9" data-name="... copie 9" class="cls-2" d="M920.611,3728c0,0.92-1.3,1.67-2.9,1.67s-2.9-.75-2.9-1.67,1.3-1.67,2.9-1.67S920.611,3727.08,920.611,3728Zm9.377,5.34c0,0.92-1.3,1.67-2.9,1.67s-2.9-.75-2.9-1.67,1.3-1.67,2.9-1.67S929.988,3732.42,929.988,3733.34Z" transform="translate(-746.25 -3467)"/>
        <path id="_..._copie_10" data-name="... copie 10" class="cls-2" d="M939.611,3739c0,0.92-1.3,1.67-2.9,1.67s-2.9-.75-2.9-1.67,1.3-1.67,2.9-1.67S939.611,3738.08,939.611,3739Zm9.377,5.34c0,0.92-1.3,1.67-2.9,1.67s-2.9-.75-2.9-1.67,1.3-1.67,2.9-1.67S948.988,3743.42,948.988,3744.34Z" transform="translate(-746.25 -3467)"/>
        <path id="_..._copie_11" data-name="... copie 11" class="cls-2" d="M957.611,3750c0,0.92-1.3,1.67-2.9,1.67s-2.9-.75-2.9-1.67,1.3-1.67,2.9-1.67S957.611,3749.08,957.611,3750Zm9.377,5.34c0,0.92-1.3,1.67-2.9,1.67s-2.9-.75-2.9-1.67,1.3-1.67,2.9-1.67S966.988,3754.42,966.988,3755.34Z" transform="translate(-746.25 -3467)"/>
        <path id="_..._copie_12" data-name="... copie 12" class="cls-2" d="M966.611,3755c0,0.92-1.3,1.67-2.9,1.67s-2.9-.75-2.9-1.67,1.3-1.67,2.9-1.67S966.611,3754.08,966.611,3755Zm9.377,5.34c0,0.92-1.3,1.67-2.9,1.67s-2.9-.75-2.9-1.67,1.3-1.67,2.9-1.67S975.988,3759.42,975.988,3760.34Z" transform="translate(-746.25 -3467)"/>
        <path id="_..._copie_13" data-name="... copie 13" class="cls-2" d="M984.611,3766c0,0.92-1.3,1.67-2.9,1.67s-2.9-.75-2.9-1.67,1.3-1.67,2.9-1.67S984.611,3765.08,984.611,3766Zm9.377,5.34c0,0.92-1.3,1.67-2.9,1.67s-2.9-.75-2.9-1.67,1.3-1.67,2.9-1.67S993.988,3770.42,993.988,3771.34Z" transform="translate(-746.25 -3467)"/>
        <path id="_..._copie_14" data-name="... copie 14" class="cls-2" d="M761.8,3644.66c0,0.93-1.3,1.67-2.9,1.67s-2.9-.74-2.9-1.67,1.3-1.67,2.9-1.67S761.8,3643.74,761.8,3644.66Zm8.809,5.34c0,0.92-1.3,1.67-2.9,1.67s-2.9-.75-2.9-1.67,1.3-1.67,2.9-1.67S770.611,3649.08,770.611,3650Zm9.377,5.34c0,0.92-1.3,1.67-2.9,1.67s-2.9-.75-2.9-1.67,1.3-1.67,2.9-1.67S779.988,3654.42,779.988,3655.34Z" transform="translate(-746.25 -3467)"/>
        <path id="_..._copie_15" data-name="... copie 15" class="cls-2" d="M788.611,3661c0,0.92-1.3,1.67-2.9,1.67s-2.9-.75-2.9-1.67,1.3-1.67,2.9-1.67S788.611,3660.08,788.611,3661Zm9.377,5.34c0,0.92-1.3,1.67-2.9,1.67s-2.9-.75-2.9-1.67,1.3-1.67,2.9-1.67S797.988,3665.42,797.988,3666.34Z" transform="translate(-746.25 -3467)"/>
        <path id="_..._copie_16" data-name="... copie 16" class="cls-2" d="M807.611,3672c0,0.92-1.3,1.67-2.9,1.67s-2.9-.75-2.9-1.67,1.3-1.67,2.9-1.67S807.611,3671.08,807.611,3672Zm9.377,5.34c0,0.92-1.3,1.67-2.9,1.67s-2.9-.75-2.9-1.67,1.3-1.67,2.9-1.67S816.988,3676.42,816.988,3677.34Z" transform="translate(-746.25 -3467)"/>
        <path id="_..._copie_17" data-name="... copie 17" class="cls-2" d="M825.611,3683c0,0.92-1.3,1.67-2.9,1.67s-2.9-.75-2.9-1.67,1.3-1.67,2.9-1.67S825.611,3682.08,825.611,3683Zm9.377,5.34c0,0.92-1.3,1.67-2.9,1.67s-2.9-.75-2.9-1.67,1.3-1.67,2.9-1.67S834.988,3687.42,834.988,3688.34Z" transform="translate(-746.25 -3467)"/>
        <path id="_..._copie_18" data-name="... copie 18" class="cls-2" d="M843.8,3693.66c0,0.92-1.3,1.67-2.9,1.67s-2.9-.75-2.9-1.67,1.3-1.67,2.9-1.67S843.8,3692.74,843.8,3693.66Zm8.809,5.34c0,0.92-1.3,1.67-2.9,1.67s-2.9-.75-2.9-1.67,1.3-1.67,2.9-1.67S852.611,3698.08,852.611,3699Zm9.377,5.34c0,0.92-1.3,1.67-2.9,1.67s-2.9-.75-2.9-1.67,1.3-1.67,2.9-1.67S861.988,3703.42,861.988,3704.34Z" transform="translate(-746.25 -3467)"/>
        <path id="_..._copie_19" data-name="... copie 19" class="cls-2" d="M870.611,3710c0,0.92-1.3,1.67-2.9,1.67s-2.9-.75-2.9-1.67,1.3-1.67,2.9-1.67S870.611,3709.08,870.611,3710Zm9.377,5.34c0,0.92-1.3,1.67-2.9,1.67s-2.9-.75-2.9-1.67,1.3-1.67,2.9-1.67S879.988,3714.42,879.988,3715.34Z" transform="translate(-746.25 -3467)"/>
        <path id="_..._copie_20" data-name="... copie 20" class="cls-2" d="M889.611,3721c0,0.92-1.3,1.67-2.9,1.67s-2.9-.75-2.9-1.67,1.3-1.67,2.9-1.67S889.611,3720.08,889.611,3721Zm9.377,5.34c0,0.92-1.3,1.67-2.9,1.67s-2.9-.75-2.9-1.67,1.3-1.67,2.9-1.67S898.988,3725.42,898.988,3726.34Z" transform="translate(-746.25 -3467)"/>
        <path id="_..._copie_21" data-name="... copie 21" class="cls-2" d="M907.611,3732c0,0.92-1.3,1.67-2.9,1.67s-2.9-.75-2.9-1.67,1.3-1.67,2.9-1.67S907.611,3731.08,907.611,3732Zm9.377,5.34c0,0.92-1.3,1.67-2.9,1.67s-2.9-.75-2.9-1.67,1.3-1.67,2.9-1.67S916.988,3736.42,916.988,3737.34Z" transform="translate(-746.25 -3467)"/>
        <path id="_..._copie_22" data-name="... copie 22" class="cls-2" d="M916.611,3737c0,0.92-1.3,1.67-2.9,1.67s-2.9-.75-2.9-1.67,1.3-1.67,2.9-1.67S916.611,3736.08,916.611,3737Zm9.377,5.34c0,0.92-1.3,1.67-2.9,1.67s-2.9-.75-2.9-1.67,1.3-1.67,2.9-1.67S925.988,3741.42,925.988,3742.34Z" transform="translate(-746.25 -3467)"/>
        <path id="_..._copie_23" data-name="... copie 23" class="cls-2" d="M935.611,3748c0,0.92-1.3,1.67-2.9,1.67s-2.9-.75-2.9-1.67,1.3-1.67,2.9-1.67S935.611,3747.08,935.611,3748Zm9.377,5.34c0,0.92-1.3,1.67-2.9,1.67s-2.9-.75-2.9-1.67,1.3-1.67,2.9-1.67S944.988,3752.42,944.988,3753.34Z" transform="translate(-746.25 -3467)"/>
        <path id="_..._copie_24" data-name="... copie 24" class="cls-2" d="M953.611,3759c0,0.92-1.3,1.67-2.9,1.67s-2.9-.75-2.9-1.67,1.3-1.67,2.9-1.67S953.611,3758.08,953.611,3759Zm9.377,5.34c0,0.92-1.3,1.67-2.9,1.67s-2.9-.75-2.9-1.67,1.3-1.67,2.9-1.67S962.988,3763.42,962.988,3764.34Z" transform="translate(-746.25 -3467)"/>
        <path id="_..._copie_25" data-name="... copie 25" class="cls-2" d="M962.611,3764c0,0.92-1.3,1.67-2.9,1.67s-2.9-.75-2.9-1.67,1.3-1.67,2.9-1.67S962.611,3763.08,962.611,3764Zm9.377,5.34c0,0.92-1.3,1.67-2.9,1.67s-2.9-.75-2.9-1.67,1.3-1.67,2.9-1.67S971.988,3768.42,971.988,3769.34Z" transform="translate(-746.25 -3467)"/>
        <path id="_..._copie_26" data-name="... copie 26" class="cls-2" d="M980.611,3775c0,0.92-1.3,1.67-2.9,1.67s-2.9-.75-2.9-1.67,1.3-1.67,2.9-1.67S980.611,3774.08,980.611,3775Zm9.377,5.34c0,0.92-1.3,1.67-2.9,1.67s-2.9-.75-2.9-1.67,1.3-1.67,2.9-1.67S989.988,3779.42,989.988,3780.34Z" transform="translate(-746.25 -3467)"/>
      </g>
      <g id="Groupe_2_copie" data-name="Groupe 2 copie">
        <path id="_..._copie_26-2" data-name="... copie 26" class="cls-2" d="M999.611,3762c0,0.92-1.3,1.67-2.9,1.67s-2.9-.75-2.9-1.67,1.3-1.67,2.9-1.67S999.611,3761.08,999.611,3762Zm9.379,5.34c0,0.92-1.3,1.67-2.91,1.67s-2.9-.75-2.9-1.67,1.3-1.67,2.9-1.67S1008.99,3766.42,1008.99,3767.34Z" transform="translate(-746.25 -3467)"/>
        <path id="_..._copie_27" data-name="... copie 27" class="cls-2" d="M1013.61,3759c0,0.92-1.3,1.67-2.9,1.67s-2.91-.75-2.91-1.67,1.3-1.67,2.91-1.67S1013.61,3758.08,1013.61,3759Zm9.38,5.34c0,0.92-1.3,1.67-2.91,1.67s-2.9-.75-2.9-1.67,1.3-1.67,2.9-1.67S1022.99,3763.42,1022.99,3764.34Z" transform="translate(-746.25 -3467)"/>
        <path id="_..._copie_34" data-name="... copie 34" class="cls-2" d="M1013.61,3759c0,0.92-1.3,1.67-2.9,1.67s-2.91-.75-2.91-1.67,1.3-1.67,2.91-1.67S1013.61,3758.08,1013.61,3759Zm-10.62,16.34c0,0.92-1.3,1.67-2.91,1.67s-2.9-.75-2.9-1.67,1.3-1.67,2.9-1.67S1002.99,3774.42,1002.99,3775.34Z" transform="translate(-746.25 -3467)"/>
        <path id="_..._copie_28" data-name="... copie 28" class="cls-2" d="M1019.61,3749c0,0.92-1.3,1.67-2.9,1.67s-2.91-.75-2.91-1.67,1.3-1.67,2.91-1.67S1019.61,3748.08,1019.61,3749Zm9.38,5.34c0,0.92-1.3,1.67-2.91,1.67s-2.9-.75-2.9-1.67,1.3-1.67,2.9-1.67S1028.99,3753.42,1028.99,3754.34Z" transform="translate(-746.25 -3467)"/>
        <path id="_..._copie_29" data-name="... copie 29" class="cls-2" d="M1033.61,3746c0,0.92-1.3,1.67-2.9,1.67s-2.91-.75-2.91-1.67,1.3-1.67,2.91-1.67S1033.61,3745.08,1033.61,3746Zm9.38,5.34c0,0.92-1.3,1.67-2.91,1.67s-2.9-.75-2.9-1.67,1.3-1.67,2.9-1.67S1042.99,3750.42,1042.99,3751.34Z" transform="translate(-746.25 -3467)"/>
        <path id="_..._copie_30" data-name="... copie 30" class="cls-2" d="M1038.61,3736c0,0.92-1.3,1.67-2.9,1.67s-2.91-.75-2.91-1.67,1.3-1.67,2.91-1.67S1038.61,3735.08,1038.61,3736Zm9.38,5.34c0,0.92-1.3,1.67-2.91,1.67s-2.9-.75-2.9-1.67,1.3-1.67,2.9-1.67S1047.99,3740.42,1047.99,3741.34Z" transform="translate(-746.25 -3467)"/>
        <path id="_..._copie_31" data-name="... copie 31" class="cls-2" d="M1052.61,3733c0,0.92-1.3,1.67-2.9,1.67s-2.91-.75-2.91-1.67,1.3-1.67,2.91-1.67S1052.61,3732.08,1052.61,3733Zm9.38,5.34c0,0.92-1.3,1.67-2.91,1.67s-2.9-.75-2.9-1.67,1.3-1.67,2.9-1.67S1061.99,3737.42,1061.99,3738.34Z" transform="translate(-746.25 -3467)"/>
        <path id="_..._copie_32" data-name="... copie 32" class="cls-2" d="M1058.61,3723c0,0.92-1.3,1.67-2.9,1.67s-2.91-.75-2.91-1.67,1.3-1.67,2.91-1.67S1058.61,3722.08,1058.61,3723Zm9.38,5.34c0,0.92-1.3,1.67-2.91,1.67s-2.9-.75-2.9-1.67,1.3-1.67,2.9-1.67S1067.99,3727.42,1067.99,3728.34Z" transform="translate(-746.25 -3467)"/>
        <path id="_..._copie_33" data-name="... copie 33" class="cls-2" d="M1072.61,3720c0,0.92-1.3,1.67-2.9,1.67s-2.91-.75-2.91-1.67,1.3-1.67,2.91-1.67S1072.61,3719.08,1072.61,3720Zm9.38,5.34c0,0.92-1.3,1.67-2.91,1.67s-2.9-.75-2.9-1.67,1.3-1.67,2.9-1.67S1081.99,3724.42,1081.99,3725.34Z" transform="translate(-746.25 -3467)"/>
      </g>
    </g>
    <path id="_..." data-name="..." class="cls-3" d="M935.8,3525.66c0,0.93-1.3,1.67-2.9,1.67s-2.9-.74-2.9-1.67,1.3-1.67,2.9-1.67S935.8,3524.74,935.8,3525.66Zm5.809,3.34c0,0.92-1.3,1.67-2.9,1.67s-2.9-.75-2.9-1.67,1.3-1.67,2.9-1.67S941.611,3528.08,941.611,3529Zm6.377,3.34c0,0.92-1.3,1.67-2.9,1.67s-2.9-.75-2.9-1.67,1.3-1.67,2.9-1.67S947.988,3531.42,947.988,3532.34Z" transform="translate(-746.25 -3467)"/>
  </g>
  <g id="LECTURE">
    <path id="Forme_34" data-name="Forme 34" class="cls-4" d="M851.454,3585.96L918,3623.99l-55.454,31.98L796,3617.78Z" transform="translate(-746.25 -3467)"/>
    <path id="Forme_34_copie" data-name="Forme 34 copie" class="cls-5" d="M861.454,3585.96L928,3623.99l-55.454,31.98L806,3617.78Z" transform="translate(-746.25 -3467)"/>
    <path id="Forme_36" data-name="Forme 36" class="cls-2" d="M879.9,3621.27c0,5.26-6.486,9.52-14.488,9.52s-14.488-4.26-14.488-9.52,6.487-9.51,14.488-9.51S879.9,3616.02,879.9,3621.27Z" transform="translate(-746.25 -3467)"/>
    <path id="Forme_37" data-name="Forme 37" class="cls-3" d="M857.733,3623.29l11.43-6.16,2.527,7.06Z" transform="translate(-746.25 -3467)"/>
  </g>
  <g id="HEADER">
    <path id="Forme_34_copie_2" data-name="Forme 34 copie 2" class="cls-6" d="M1009.41,3595.99l89.47,53.23L1022.47,3694,933,3640.62Z" transform="translate(-746.25 -3467)"/>
    <path id="Forme_34_copie_3" data-name="Forme 34 copie 3" class="cls-5" d="M1020.53,3595.99l90.47,53.23L1034.59,3694l-90.469-53.38Z" transform="translate(-746.25 -3467)"/>
    <path id="Forme_57" data-name="Forme 57" class="cls-2" d="M1019.19,3597.07l1.84-.27,13.9,95.2-1.84.27Z" transform="translate(-746.25 -3467)"/>
    <path id="Forme_58" data-name="Forme 58" class="cls-2" d="M947.773,3640.8l0.108-1.87,158.469,9.34-0.11,1.86Z" transform="translate(-746.25 -3467)"/>
    <path id="Forme_34_copie_4" data-name="Forme 34 copie 4" class="cls-5" d="M930.6,3540l24.4,14.12L934.4,3566,910,3551.84Z" transform="translate(-746.25 -3467)"/>
    <path id="Forme_57_copie" data-name="Forme 57 copie" class="cls-7" d="M930.243,3540.28l0.494-.07,3.749,25.26-0.494.07Z" transform="translate(-746.25 -3467)"/>
    <path id="Forme_58_copie" data-name="Forme 58 copie" class="cls-7" d="M910.984,3551.88l0.029-.49,42.732,2.48-0.029.49Z" transform="translate(-746.25 -3467)"/>
    <path id="Forme_56_copie" data-name="Forme 56 copie" class="cls-2" d="M948.709,3565.4l38.554,22.09,2.112-1.3-38.752-22.02Zm-3.381,2.43,38.554,22.09,2.112-1.3-38.752-22.02Zm7-4.86,38.555,22.09,2.111-1.3-38.752-22.02Z" transform="translate(-746.25 -3467)"/>
  </g>
  <g id="IMG">
    <path id="Forme_52" data-name="Forme 52" class="cls-8" d="M910.45,3644.01l-33.463,19.27L921.57,3689l33.437-19.29Z" transform="translate(-746.25 -3467)"/>
    <path id="Forme_53" data-name="Forme 53" class="cls-9" d="M946.988,3675.76l-15.958,9.21L891,3661.85l11.188-6.46,12.855,0.96,3.07,9.96,28.358,0.58Zm-18.043-20.44c0,1.3-1.858,2.35-4.151,2.35s-4.151-1.05-4.151-2.35,1.858-2.34,4.151-2.34S928.945,3654.03,928.945,3655.32Z" transform="translate(-746.25 -3467)"/>
    <path id="Forme_52_copie" data-name="Forme 52 copie" class="cls-8" d="M967.45,3676.01l-33.463,19.27L978.57,3721l33.44-19.29Z" transform="translate(-746.25 -3467)"/>
    <path id="Forme_53_copie" data-name="Forme 53 copie" class="cls-9" d="M1003.99,3707.76l-15.96,9.21L948,3693.85l11.188-6.46,12.855,0.96,3.07,9.96,28.362,0.58Zm-18.045-20.44c0,1.3-1.859,2.35-4.151,2.35s-4.151-1.05-4.151-2.35,1.858-2.34,4.151-2.34S985.945,3686.03,985.945,3687.32Z" transform="translate(-746.25 -3467)"/>
  </g>
  <g id="BULL">
    <path id="Forme_55" data-name="Forme 55" class="cls-8" d="M962.821,3597.21l-66.44-36.67a3.283,3.283,0,0,0-3.266,0l-19.937,11.45a3.242,3.242,0,0,0,0,5.63l54.8,29.95v6.76a1.479,1.479,0,0,0,1.812,1.43l8.765-2.12,1.078,0.62a3.323,3.323,0,0,0,3.261,0l19.917-11.42A3.241,3.241,0,0,0,962.821,3597.21Z" transform="translate(-746.25 -3467)"/>
  </g>
</svg>
