<svg id="POINTER" xmlns="http://www.w3.org/2000/svg" width="53" height="56" viewBox="0 0 53 56">
  <defs>
    <style>
      .cls-1 {
        fill: #fff;
      }

      .cls-1, .cls-2 {
        fill-rule: evenodd;
      }

      .cls-2 {
        fill: #ffe450;
        fill-opacity: 0;
        stroke: #38383a;
        stroke-linejoin: round;
        stroke-width: 2px;
      }
    </style>
  </defs>
  <path class="cls-1" d="M1016.45,665.176a1.411,1.411,0,0,0-.67-0.962c-8.15-4.845-12.93-5.851-16.419-6.578-0.45-.1-0.89-0.182-1.308-0.278l-1.511-12.4a5.062,5.062,0,0,0-10.115-.171c0,0.054-.011.1-0.011,0.15v7.294L986.3,670.043l-1.929-1.487a10.5,10.5,0,0,0-6.226-2.428,7.627,7.627,0,0,0-5.765,2.717,1.434,1.434,0,0,0-.107,1.807,66.363,66.363,0,0,0,8.669,9.562,46.432,46.432,0,0,0,9.237,6.641A24.659,24.659,0,0,0,1001.46,690h0.17c4.93,0,8.77-1.625,11.4-4.823C1018.91,678.053,1016.55,665.7,1016.45,665.176Z" transform="translate(-964 -635)"/>
  <path id="Shape_1_copie" data-name="Shape 1 copie" class="cls-2" d="M1011.45,663.176a1.411,1.411,0,0,0-.67-0.962c-8.15-4.845-12.926-5.851-16.419-6.578-0.45-.1-0.89-0.182-1.308-0.278l-1.511-12.4a5.062,5.062,0,0,0-10.115-.171c0,0.054-.011.1-0.011,0.15v7.294L981.3,668.043l-1.929-1.487a10.5,10.5,0,0,0-6.226-2.428,7.627,7.627,0,0,0-5.765,2.717,1.434,1.434,0,0,0-.107,1.807,66.363,66.363,0,0,0,8.669,9.562,46.472,46.472,0,0,0,9.237,6.641A24.659,24.659,0,0,0,996.461,688h0.171c4.928,0,8.768-1.625,11.4-4.823C1013.91,676.053,1011.55,663.7,1011.45,663.176Z" transform="translate(-964 -635)"/>
</svg>
