<svg id="ADRESSE" xmlns="http://www.w3.org/2000/svg" width="118" height="121.03" viewBox="0 0 118 121.03">
  <defs>
    <style>
      .cls-1 {
        fill: #ffe450;
      }

      .cls-1, .cls-2, .cls-3 {
        fill-rule: evenodd;
      }

      .cls-2 {
        fill: #38383a;
      }

      .cls-3 {
        fill: #fff;
      }
    </style>
  </defs>
  <path id="FLAQUE_D_EAU_copie_2" data-name="FLAQUE D&apos;EAU copie 2" class="cls-1" d="M474.027,4968.03c-2.01-3.51-5.129-4.59-8.1-6.84-3.618-2.74-6.053-4.73-5.114-8.19,1.523-5.6,2.156-19.38-21.5-17.91-8.561.53-15.471,4.48-20.582,8.48-4.386,3.43-12.086,3.66-18.337,4.42a140.257,140.257,0,0,0-22.964,4.56c-15.224,4.55-20.283,11.31-20.429,20.12-0.044,2.69.2,6.95,7.134,11.98,9.406,6.83,23.726,7.74,41.055,4.62,3.934-.71,7.66-1.82,11.511-2.66a81.67,81.67,0,0,1,12.268-1.67c9.649-.58,19.578.51,28.747-1.31a35.1,35.1,0,0,0,12.678-5.01C474.679,4975.75,476.159,4971.75,474.027,4968.03Z" transform="translate(-357 -4869.97)"/>
  <path id="ZIG_ZAG_copie_3" data-name="ZIG ZAG copie 3" class="cls-2" d="M379.994,4963.67a0.945,0.945,0,0,1,.3-0.7l6.279-5.97-6.279-5.95a1.008,1.008,0,0,1,0-1.42l6.28-5.96-6.28-5.96a0.971,0.971,0,0,1-.025-1.39,1.013,1.013,0,0,1,1.409-.03l7.024,6.67a0.984,0.984,0,0,1,.305.71h0a0.984,0.984,0,0,1-.305.71l-6.279,5.96,6.279,5.96a1,1,0,0,1,0,1.41l-6.279,5.96,6.279,5.96a0.984,0.984,0,0,1,.305.71h0a0.959,0.959,0,0,1-.306.7l-7.024,6.67a1.014,1.014,0,0,1-1.409-.03,0.972,0.972,0,0,1,.027-1.39l6.278-5.95-6.279-5.96A0.984,0.984,0,0,1,379.994,4963.67Z" transform="translate(-357 -4869.97)"/>
  <path id="Forme_734" data-name="Forme 734" class="cls-3" d="M451,4890.16c0.273-16.26-9.957-24.23-23.138-18.15-13.518,6.24-25.635,25.12-26.784,42.57-0.459,6.98.92,12.63,3.654,16.47l19.469,36.96,22.215-58.41a57.777,57.777,0,0,0,2.205-5.8h0A47.754,47.754,0,0,0,451,4890.16Z" transform="translate(-357 -4869.97)"/>
  <path id="Forme_736" data-name="Forme 736" class="cls-2" d="M417.2,4920.99a6.332,6.332,0,0,1-3.625-1.09c-2.466-1.66-3.759-5.08-3.553-9.37,0.385-7.88,5.485-16.43,11.614-19.46,2.887-1.43,5.65-1.42,7.782.03,2.4,1.62,3.7,4.91,3.573,9.03-0.238,7.72-5.363,16.55-11.422,19.69h0A9.593,9.593,0,0,1,417.2,4920.99Zm8.577-28.65a7.273,7.273,0,0,0-3.171.83c-5.36,2.65-10,10.49-10.337,17.47-0.168,3.45.758,6.11,2.536,7.31,1.491,1.02,3.535.93,5.759-.22,5.4-2.79,9.966-10.72,10.18-17.67,0.1-3.29-.831-5.85-2.556-7.01A4.237,4.237,0,0,0,425.779,4892.34Z" transform="translate(-357 -4869.97)"/>
  <path id="Forme_735" data-name="Forme 735" class="cls-2" d="M418.807,4969.96l-1.155-.57-18.121-35.62c-2.68-3.88-3.907-9.55-3.481-16.26,1.065-16.74,12.4-35.36,25.27-41.51,5.763-2.74,11.24-2.7,15.425.13,4.829,3.26,7.413,9.7,7.276,18.12h0a48.011,48.011,0,0,1-2.24,13.33,59.022,59.022,0,0,1-2.072,5.63Zm10.689-94.02a17.29,17.29,0,0,0-7.382,1.85c-12.3,5.87-23.148,23.75-24.171,39.84-0.4,6.26.71,11.49,3.2,15.12l17.054,33.5,19.758-53.78a57.821,57.821,0,0,0,2.02-5.49,45.949,45.949,0,0,0,2.15-12.76c0.124-7.61-2.215-13.6-6.416-16.44A10.86,10.86,0,0,0,429.5,4875.94Z" transform="translate(-357 -4869.97)"/>
  <path id="Forme_573" data-name="Forme 573" class="cls-2" d="M425.958,4983.88l4.567-4.57a1.146,1.146,0,0,0-1.622-1.62l-4.566,4.57-4.567-4.57a1.146,1.146,0,0,0-1.622,1.62l4.567,4.57-4.239,4.24a1.146,1.146,0,1,0,1.622,1.62l4.239-4.24,4.239,4.24a1.146,1.146,0,1,0,1.621-1.62Z" transform="translate(-357 -4869.97)"/>
</svg>
