<svg id="_3" data-name="3" xmlns="http://www.w3.org/2000/svg" width="267.875" height="162.22" viewBox="0 0 267.875 162.22">
  <defs>
    <style>
      .cls-1 {
        fill: #ffe0f2;
      }

      .cls-1, .cls-2, .cls-3 {
        fill-rule: evenodd;
      }

      .cls-2 {
        fill: #ffe450;
      }

      .cls-3 {
        fill: #38383a;
      }
    </style>
  </defs>
  <path id="Forme_100" data-name="Forme 100" class="cls-1" d="M1032.18,2669.4c-16.97-15.57-53.049-17.93-84.84-15.92-42.562,2.7-76.988-9.85-70.445-29.35,5.152-15.36,44.407-18.76,34.776-36.79-11.326-21.2,20.876-43.41,61.53-41.62,62.039,2.72,36.059,28.14,131.6,30.68,45.49,1.22,55.89,36.36,6.99,48.47-26.93,6.67-38.73,15.57-24.19,27.75C1107.62,2669.41,1061.97,2696.73,1032.18,2669.4Z" transform="translate(-876.125 -2518.78)"/>
  <g id="Groupe_5" data-name="Groupe 5">
    <path id="Forme_96" data-name="Forme 96" class="cls-2" d="M1013.08,2541.03q9.9,5.64,10.95,13.12t-7.16,15.81l0.43,0.25q29.97-13.26,51.78-.83,14.85,8.46,11.6,20-3.225,11.55-24.11,23.44a141.117,141.117,0,0,1-17.13,8.35,157.489,157.489,0,0,1-20.32,6.45l-23.857-13.6a128.875,128.875,0,0,0,19.5-5.1,93.249,93.249,0,0,0,15.05-6.63q9.45-5.385,11.13-9.37,1.665-3.975-4-7.21a18.422,18.422,0,0,0-8.98-2.55,32.283,32.283,0,0,0-10.84,2.12,90.169,90.169,0,0,0-14.3,6.77l-6.541,3.73-21.6-12.3,6.693-3.82q21.89-12.48,10.689-18.86a14.859,14.859,0,0,0-9.49-1.72,29.417,29.417,0,0,0-10.729,3.79,31.654,31.654,0,0,0-14.252,15.92l-31.133-4.15a36.506,36.506,0,0,1,8.984-14.56q6.369-6.45,17.784-12.96,16.51-9.4,32.435-11.03Q1001.591,2534.485,1013.08,2541.03Z" transform="translate(-876.125 -2518.78)"/>
  </g>
  <path id="Forme_99" data-name="Forme 99" class="cls-3" d="M1039.65,2673.31a1.3,1.3,0,0,1,0,2.45,4.66,4.66,0,0,1-4.21,0,1.294,1.294,0,0,1,0-2.45A4.6,4.6,0,0,1,1039.65,2673.31Zm12.16-16.74a1.294,1.294,0,0,1,0,2.45,4.66,4.66,0,0,1-4.21,0,1.294,1.294,0,0,1,0-2.45A4.6,4.6,0,0,1,1051.81,2656.57Zm11.02-6.42a1.3,1.3,0,0,1,0,2.46,4.66,4.66,0,0,1-4.21,0,1.3,1.3,0,0,1,0-2.46A4.66,4.66,0,0,1,1062.83,2650.15Zm11.02-6.41a1.3,1.3,0,0,1,0,2.45,4.62,4.62,0,0,1-4.22,0C1068.47,2645.52,1072.68,2643.06,1073.85,2643.74Zm11.02-6.41a1.3,1.3,0,0,1,0,2.45,4.62,4.62,0,0,1-4.22,0C1079.49,2639.1,1083.7,2636.65,1084.87,2637.33Zm-56.24,29.56a1.3,1.3,0,0,1,0,2.46,4.66,4.66,0,0,1-4.21,0,1.3,1.3,0,0,1,0-2.46A4.66,4.66,0,0,1,1028.63,2666.89Zm11.02-6.41a1.3,1.3,0,0,1,0,2.45,4.6,4.6,0,0,1-4.21,0,1.294,1.294,0,0,1,0-2.45A4.6,4.6,0,0,1,1039.65,2660.48Zm-23.18,5.69a4.6,4.6,0,0,1-4.21,0,1.294,1.294,0,0,1,0-2.45,4.6,4.6,0,0,1,4.21,0A1.3,1.3,0,0,1,1016.47,2666.17Zm-11.02-8.86a1.294,1.294,0,0,1,0,2.45,4.6,4.6,0,0,1-4.21,0,1.294,1.294,0,0,1,0-2.45A4.6,4.6,0,0,1,1005.45,2657.31Zm-11.112-6.48a1.3,1.3,0,0,1,0,2.45,4.607,4.607,0,0,1-4.214,0,1.3,1.3,0,0,1,0-2.45A4.607,4.607,0,0,1,994.338,2650.83Zm-11.017-6.41a1.3,1.3,0,0,1,0,2.45,4.609,4.609,0,0,1-4.215,0,1.3,1.3,0,0,1,0-2.45A4.609,4.609,0,0,1,983.321,2644.42Zm-11.019-6.41a1.3,1.3,0,0,1,0,2.45,4.605,4.605,0,0,1-4.213,0,1.3,1.3,0,0,1,0-2.45A4.605,4.605,0,0,1,972.3,2638.01Zm11.019-6.42a1.3,1.3,0,0,1,0,2.46,4.671,4.671,0,0,1-4.215,0,1.3,1.3,0,0,1,0-2.46A4.671,4.671,0,0,1,983.321,2631.59Zm-22.036,0a1.3,1.3,0,0,1,0,2.46,4.669,4.669,0,0,1-4.214,0,1.3,1.3,0,0,1,0-2.46A4.669,4.669,0,0,1,961.285,2631.59Zm11.018-6.41a1.3,1.3,0,0,1,0,2.45,4.607,4.607,0,0,1-4.214,0,1.3,1.3,0,0,1,0-2.45A4.607,4.607,0,0,1,972.3,2625.18Zm-22.036,0a1.3,1.3,0,0,1,0,2.45,4.607,4.607,0,0,1-4.214,0,1.3,1.3,0,0,1,0-2.45A4.607,4.607,0,0,1,950.267,2625.18Zm11.018-6.41a1.3,1.3,0,0,1,0,2.45,4.607,4.607,0,0,1-4.214,0,1.3,1.3,0,0,1,0-2.45A4.607,4.607,0,0,1,961.285,2618.77Zm-22.036,0a1.3,1.3,0,0,1,0,2.45,4.607,4.607,0,0,1-4.214,0,1.3,1.3,0,0,1,0-2.45A4.607,4.607,0,0,1,939.249,2618.77Zm11.018-6.41a1.3,1.3,0,0,1,0,2.45,4.607,4.607,0,0,1-4.214,0,1.3,1.3,0,0,1,0-2.45A4.607,4.607,0,0,1,950.267,2612.36Zm-22.036,0a1.3,1.3,0,0,1,0,2.45,4.607,4.607,0,0,1-4.214,0,1.3,1.3,0,0,1,0-2.45A4.607,4.607,0,0,1,928.231,2612.36Zm124.009,56a1.3,1.3,0,0,1,0,2.46,4.66,4.66,0,0,1-4.21,0,1.3,1.3,0,0,1,0-2.46A4.66,4.66,0,0,1,1052.24,2668.36Zm11.02-6.41a1.294,1.294,0,0,1,0,2.45,4.6,4.6,0,0,1-4.21,0,1.294,1.294,0,0,1,0-2.45A4.6,4.6,0,0,1,1063.26,2661.95Zm11.02-6.41a1.3,1.3,0,0,1,0,2.45,4.6,4.6,0,0,1-4.21,0,1.294,1.294,0,0,1,0-2.45A4.6,4.6,0,0,1,1074.28,2655.54Zm11.02-6.41a1.3,1.3,0,0,1,0,2.45,4.62,4.62,0,0,1-4.22,0,1.3,1.3,0,0,1,0-2.45A4.62,4.62,0,0,1,1085.3,2649.13Z" transform="translate(-876.125 -2518.78)"/>
  <path id="ZIG_ZAG_copie_2" data-name="ZIG ZAG copie 2" class="cls-3" d="M1110.79,2623.24a1.137,1.137,0,0,1,.35-0.81l7.19-6.84-7.19-6.84a1.141,1.141,0,0,1,0-1.62l7.19-6.84-7.19-6.84a1.117,1.117,0,0,1-.03-1.6,1.147,1.147,0,0,1,1.61-.03l8.05,7.66a1.119,1.119,0,0,1,.35.81h0a1.119,1.119,0,0,1-.35.81l-7.19,6.84,7.19,6.84a1.159,1.159,0,0,1,0,1.62l-7.19,6.84,7.19,6.84a1.137,1.137,0,0,1,.35.81h0a1.091,1.091,0,0,1-.36.81l-8.04,7.65a1.147,1.147,0,0,1-1.61-.03,1.105,1.105,0,0,1,.03-1.59l7.19-6.84-7.19-6.84A1.119,1.119,0,0,1,1110.79,2623.24Z" transform="translate(-876.125 -2518.78)"/>
  <path id="Forme_573_copie_2" data-name="Forme 573 copie 2" class="cls-3" d="M1054.45,2526.82l5.64-5.64a1.414,1.414,0,0,0-2-2l-5.64,5.64-5.63-5.64a1.418,1.418,0,0,0-2,0,1.4,1.4,0,0,0,0,2l5.63,5.64-5.23,5.23a1.418,1.418,0,1,0,2,2.01l5.23-5.24,5.23,5.24a1.418,1.418,0,1,0,2-2.01Z" transform="translate(-876.125 -2518.78)"/>
  <path id="Forme_573" data-name="Forme 573" class="cls-3" d="M1084.83,2577.92c-0.68-5.9-4.96-11.16-12.78-15.69-13.87-8.03-30.28-8.37-48.88-1.02,3.49-4.65,4.95-9.19,4.35-13.53-0.77-5.49-4.68-10.33-11.64-14.36-7.89-4.57-17.4-6.34-28.306-5.2-10.782,1.11-21.906,4.95-33.062,11.41-7.706,4.47-13.8,8.99-18.125,13.44a39.045,39.045,0,0,0-8.92,14.32L927,2568.55v36.15l33.476,4.53,0.453-1.14L960.9,2573.3a30.9,30.9,0,0,1,13.624-15.37,27.741,27.741,0,0,1,10.263-3.7,13.13,13.13,0,0,1,8.675,1.58c2.106,1.23,3.132,2.51,3.132,3.95,0,2.25-2.4,6.32-13.853,12.95l-7.388,4.28v1.56l0.029,0.01-0.426,30.73,21.038,13.78v21.39l25.056,14.52,1.55-.4v-0.55a156.654,156.654,0,0,0,19.7-6.4,144.029,144.029,0,0,0,17.34-8.59c14.41-8.35,22.52-16.43,24.8-24.71a15.8,15.8,0,0,0,.56-3.81V2577.6Zm-126.61,28.29-28.543-3.86V2570.3l28.543,3.86v32.05Zm25.861-31.16c10.224-5.93,15.193-10.93,15.193-15.29,0-2.44-1.5-4.56-4.471-6.28a16.079,16.079,0,0,0-10.364-1.92,30.624,30.624,0,0,0-11.255,4.03,33.594,33.594,0,0,0-14.466,15.93l-15.142-2.05-13.44-1.82a36.382,36.382,0,0,1,8.171-12.8c4.149-4.27,10.053-8.64,17.545-12.98,10.827-6.27,21.592-10,32-11.08,10.323-1.07,19.3.58,26.692,4.87,6.21,3.59,9.69,7.76,10.33,12.39s-1.66,9.68-6.82,15l-1.2,1.23,2.52,1.47,0.62-.28c19.53-8.78,36.6-9.09,50.72-.91,9.41,5.45,13.01,11.62,11.02,18.87h0c-0.13.46-.28,0.93-0.46,1.4l-2.21,4.28c-3.73,5.69-10.73,11.53-20.9,17.41a141.744,141.744,0,0,1-17.02,8.44,152.913,152.913,0,0,1-18.52,6.06l-1.28.24-11.79-6.82-8.45-4.91a125.409,125.409,0,0,0,16.24-4.55,94.287,94.287,0,0,0,15.32-6.86c6.64-3.85,10.49-7.19,11.73-10.21,0.97-2.34.96-5.81-4.58-9.02a19.69,19.69,0,0,0-9.66-2.79,35.171,35.171,0,0,0-11.33,2.24,89.452,89.452,0,0,0-14.56,7.01l-5.9,3.41-18.982-11Zm21.509,12.63a87.713,87.713,0,0,1,14.11-6.81,30.963,30.963,0,0,1,10.41-2.07,16.857,16.857,0,0,1,8.35,2.41c4.67,2.71,3.78,4.87,3.44,5.68-0.68,1.65-3.07,4.54-10.59,8.9a90.929,90.929,0,0,1-14.88,6.65,127.339,127.339,0,0,1-18.013,4.88l0.461-15.75Zm-9.668,32.64-18.969-12.03v-28.08l20.157,11.22-0.669,16.28-0.447.09v10.78Zm24.008,34.89h0l-21.251-12.32v-31.64l18.871,10.93,2.38,1.37v31.66Z" transform="translate(-876.125 -2518.78)"/>
</svg>
