<svg id="_2" data-name="2" xmlns="http://www.w3.org/2000/svg" width="260.281" height="152.63" viewBox="0 0 260.281 152.63">
  <defs>
    <style>
      .cls-1 {
        fill: #ffe450;
        mix-blend-mode: multiply;
      }

      .cls-1, .cls-2, .cls-3 {
        fill-rule: evenodd;
      }

      .cls-2 {
        fill: #8ca5e7;
      }

      .cls-3 {
        fill: #38383a;
      }
    </style>
  </defs>
  <path id="FLAQUE_D_EAU" data-name="FLAQUE D&apos;EAU" class="cls-1" d="M764.173,2620.49c-3.867-6.77-9.868-8.86-15.582-13.21-6.962-5.29-11.646-9.13-9.839-15.81,2.929-10.82,4.148-37.42-41.366-34.59-16.474,1.03-29.77,8.65-39.605,16.38-8.44,6.63-23.256,7.07-35.284,8.53a267.349,267.349,0,0,0-44.187,8.81c-29.295,8.77-39.03,21.83-39.31,38.85-0.086,5.19.393,13.41,13.727,23.12,18.1,13.18,45.654,14.95,79,8.91,7.57-1.37,14.739-3.51,22.15-5.12a156.34,156.34,0,0,1,23.606-3.23c18.567-1.12,37.671.98,55.316-2.52a67.68,67.68,0,0,0,24.394-9.68C765.428,2635.39,768.276,2627.67,764.173,2620.49Z" transform="translate(-539 -2526.06)"/>
  <path id="Forme_92" data-name="Forme 92" class="cls-2" d="M745.7,2556.25q-4.183-6.465-13.847-12.15a87.712,87.712,0,0,0-15.413-7.23,94.032,94.032,0,0,0-15.928-4.04,186.274,186.274,0,0,0-22.762-1.82l-1.32,9.9v9.02a156.233,156.233,0,0,1,17.587,1.66,35.647,35.647,0,0,1,12.182,4q4.554,2.685,4.831,5.49t-3.609,5.08a25.361,25.361,0,0,1-7.248,2.79,76.1,76.1,0,0,1-11.294,1.4q-7.183.465-28.484,0.74l-48.863.16-17.694,10.41,72.208,42.49,22.186-13.06L650.6,2588.95l0.68-.4q31.368,0.99,41.749.86a159.553,159.553,0,0,0,18.241-1.16,81.473,81.473,0,0,0,14.292-3.08,61.38,61.38,0,0,0,12.282-5.51q7.825-4.6,9.939-10.77T745.7,2556.25Z" transform="translate(-539 -2526.06)"/>
  <path id="Forme_93" data-name="Forme 93" class="cls-3" d="M739.581,2551.48c-2.89-4.37-7.7-8.52-14.308-12.33a89.869,89.869,0,0,0-15.693-7.21,97.923,97.923,0,0,0-16.2-4.03,193.821,193.821,0,0,0-23.014-1.8l-1.083-.04L666.436,2547l1.317,0.06a162.6,162.6,0,0,1,18.724,1.67,35.317,35.317,0,0,1,11.828,3.8c2.646,1.53,4.118,3.07,4.258,4.48,0.13,1.32-.889,2.61-3.03,3.85a24.708,24.708,0,0,1-6.943,2.6,75.971,75.971,0,0,1-11.156,1.36c-4.768.29-14.373,0.54-28.538,0.72l-49.078.16H603.5l-18.648,10.75,0,42.15,73.726,42.49,23.484-13.53,0-42.15-35.028-20.19c19.377,0.58,32.034.82,38.66,0.74,3.093-.04,6.011-0.15,8.792-0.3v39.58l18.985-2.03,18-7.32,7.848-7.72,2.033-6.5,0.032-35.68c0.147-.34.3-0.68,0.425-1.02C743.339,2560.57,742.592,2556.03,739.581,2551.48Zm-82.206,77.67,0,28.49-70.126-40.43v-38l70.127,40.43v9.51Zm28.285-45.59c-6.854.1-20.944-.19-41.881-0.84l-0.341-.01-2.781,1.6,37.8,21.79-2.438,1.4-17.446,10.06-60.344-34.78-9.783-5.64,15.7-9.05,48.771-.15c14.216-.19,23.862-0.43,28.669-0.74a77.108,77.108,0,0,0,11.531-1.4,27.033,27.033,0,0,0,7.618-2.87c3.029-1.74,4.449-3.82,4.218-6.16-0.225-2.26-2.006-4.33-5.446-6.32a37.647,37.647,0,0,0-12.644-4.08,159.909,159.909,0,0,0-17.693-1.65l2.207-16.19A186.475,186.475,0,0,1,693,2530.28a94.23,94.23,0,0,1,15.8,3.93,87.561,87.561,0,0,1,15.273,7.01c6.278,3.62,10.823,7.52,13.506,11.58,2.612,3.95,3.252,7.67,1.958,11.38-1.314,3.75-4.493,7.1-9.45,9.95a61.376,61.376,0,0,1-12.1,5.32,81.691,81.691,0,0,1-14.148,2.98A163.838,163.838,0,0,1,685.66,2583.56Z" transform="translate(-539 -2526.06)"/>
  <path id="Forme_94" data-name="Forme 94" class="cls-3" d="M598.866,2654.92c1.324,0.77,1.324,2.01,0,2.78a5.27,5.27,0,0,1-4.8,0c-1.326-.77-1.326-2.01,0-2.78A5.27,5.27,0,0,1,598.866,2654.92Zm12.542-7.29c1.326,0.77,1.325,2.02,0,2.79a5.27,5.27,0,0,1-4.8,0c-1.325-.77-1.325-2.02,0-2.79A5.27,5.27,0,0,1,611.408,2647.63Zm-25.085,0c1.324,0.77,1.324,2.02,0,2.79a5.272,5.272,0,0,1-4.8,0c-1.325-.77-1.325-2.02,0-2.79A5.272,5.272,0,0,1,586.323,2647.63Zm12.543-7.29c1.324,0.77,1.324,2.02,0,2.79a5.27,5.27,0,0,1-4.8,0c-1.326-.77-1.326-2.02,0-2.79A5.27,5.27,0,0,1,598.866,2640.34Zm-25.086,0c1.324,0.77,1.324,2.02,0,2.79a5.27,5.27,0,0,1-4.8,0c-1.326-.77-1.326-2.02,0-2.79A5.27,5.27,0,0,1,573.78,2640.34Zm12.543-7.28c1.325,0.77,1.325,2.01,0,2.78a5.272,5.272,0,0,1-4.8,0c-1.325-.77-1.325-2.01,0-2.78A5.272,5.272,0,0,1,586.323,2633.06Zm-12.543-7.29c1.324,0.77,1.324,2.02,0,2.79a5.27,5.27,0,0,1-4.8,0c-1.326-.77-1.326-2.02,0-2.79A5.27,5.27,0,0,1,573.78,2625.77Zm85.2,49.54c1.324,0.77,1.324,2.01,0,2.78a5.27,5.27,0,0,1-4.8,0c-1.325-.77-1.325-2.01,0-2.78A5.27,5.27,0,0,1,658.98,2675.31Zm12.544-7.29c1.324,0.77,1.324,2.02,0,2.79a5.272,5.272,0,0,1-4.8,0c-1.325-.77-1.325-2.02,0-2.79A5.272,5.272,0,0,1,671.524,2668.02Zm12.542-7.29c1.325,0.77,1.325,2.02,0,2.79a5.27,5.27,0,0,1-4.8,0c-1.325-.77-1.325-2.02,0-2.79A5.27,5.27,0,0,1,684.066,2660.73Zm-34.537,7.59c1.325,0.77,1.325,2.02,0,2.79a5.272,5.272,0,0,1-4.8,0c-1.324-.77-1.324-2.02,0-2.79A5.272,5.272,0,0,1,649.529,2668.32Zm-25.086,0c1.325,0.77,1.325,2.02,0,2.79a5.272,5.272,0,0,1-4.8,0c-1.324-.77-1.324-2.02,0-2.79A5.272,5.272,0,0,1,624.443,2668.32Zm12.543-7.28c1.325,0.77,1.325,2.01,0,2.78a5.272,5.272,0,0,1-4.8,0c-1.324-.77-1.324-2.01,0-2.78A5.272,5.272,0,0,1,636.986,2661.04Zm-25.087,0c1.326,0.77,1.326,2.01,0,2.78a5.27,5.27,0,0,1-4.8,0c-1.324-.77-1.324-2.01,0-2.78A5.27,5.27,0,0,1,611.9,2661.04Zm12.544-7.29c1.325,0.77,1.325,2.02,0,2.79a5.272,5.272,0,0,1-4.8,0c-1.324-.77-1.324-2.02,0-2.79A5.272,5.272,0,0,1,624.443,2653.75Zm105.037-14.38a5.27,5.27,0,0,1,4.8,0m24.624-43.82c1.325,0.77,1.325,2.02,0,2.79a5.27,5.27,0,0,1-4.8,0c-1.325-.77-1.325-2.02,0-2.79A5.27,5.27,0,0,1,758.9,2595.55Zm-67.067,65.38a5.272,5.272,0,0,1,4.8,0c1.327,0.77,1.331,2.01.009,2.79a5.27,5.27,0,0,1-4.8,0C690.516,2662.95,690.513,2661.71,691.834,2660.93Zm17.357-7.29c1.325,0.77,1.325,2.02,0,2.78a5.27,5.27,0,0,1-4.8,0c-1.325-.76-1.325-2.01,0-2.78A5.27,5.27,0,0,1,709.191,2653.64Zm12.543-7.29c1.325,0.77,1.325,2.02,0,2.79a5.27,5.27,0,0,1-4.8,0c-1.324-.77-1.324-2.02,0-2.79A5.27,5.27,0,0,1,721.734,2646.35Zm12.544-21.56c1.324,0.77,1.324,2.02,0,2.79a5.272,5.272,0,0,1-4.8,0c-1.325-.77-1.325-2.02,0-2.79A5.272,5.272,0,0,1,734.278,2624.79Zm12.542-7.28c1.325,0.77,1.325,2.02,0,2.78a5.27,5.27,0,0,1-4.8,0c-1.324-.76-1.324-2.01,0-2.78A5.27,5.27,0,0,1,746.82,2617.51Zm12.544-7.29c1.324,0.77,1.324,2.02,0,2.79a5.272,5.272,0,0,1-4.8,0c-1.324-.77-1.324-2.02,0-2.79A5.272,5.272,0,0,1,759.364,2610.22Zm-0.463-29.24c1.325,0.77,1.325,2.02,0,2.79a5.27,5.27,0,0,1-4.8,0c-1.325-.77-1.325-2.02,0-2.79A5.27,5.27,0,0,1,758.9,2580.98Zm-62.253,65.37c1.325,0.77,1.325,2.02,0,2.79a5.27,5.27,0,0,1-4.8,0c-1.325-.77-1.325-2.02,0-2.79A5.27,5.27,0,0,1,696.648,2646.35Zm12.543-7.28c1.325,0.77,1.325,2.01,0,2.78a5.27,5.27,0,0,1-4.8,0c-1.325-.77-1.325-2.01,0-2.78A5.27,5.27,0,0,1,709.191,2639.07Zm12.543-7.29c1.325,0.77,1.325,2.02,0,2.79a5.27,5.27,0,0,1-4.8,0c-1.324-.77-1.324-2.02,0-2.79A5.27,5.27,0,0,1,721.734,2631.78Zm-25.086,0c1.325,0.77,1.325,2.02,0,2.79a5.27,5.27,0,0,1-4.8,0c-1.324-.77-1.324-2.02,0-2.79A5.27,5.27,0,0,1,696.648,2631.78Z" transform="translate(-539 -2526.06)"/>
  <path id="ZIG_ZAG_copie" data-name="ZIG ZAG copie" class="cls-3" d="M782.883,2654.61a1.129,1.129,0,0,1-.809-0.35l-6.826-7.21-6.823,7.21a1.157,1.157,0,0,1-1.618,0l-6.827-7.21-6.829,7.21a1.114,1.114,0,0,1-1.59.02,1.148,1.148,0,0,1-.028-1.61l7.637-8.06a1.091,1.091,0,0,1,.81-0.35h0a1.091,1.091,0,0,1,.809.35l6.827,7.2,6.824-7.2a1.138,1.138,0,0,1,1.618,0l6.825,7.2,6.823-7.2a1.091,1.091,0,0,1,.809-0.35h0a1.091,1.091,0,0,1,.81.35l7.63,8.06a1.161,1.161,0,0,1-.031,1.62,1.114,1.114,0,0,1-1.59-.04l-6.819-7.2-6.823,7.21A1.129,1.129,0,0,1,782.883,2654.61Z" transform="translate(-539 -2526.06)"/>
  <path id="Forme_573_copie" data-name="Forme 573 copie" class="cls-3" d="M631.453,2535.82l5.635-5.64a1.415,1.415,0,1,0-2-2l-5.635,5.64-5.635-5.64a1.415,1.415,0,0,0-2,2l5.635,5.64-5.231,5.23a1.418,1.418,0,1,0,2,2.01l5.231-5.24,5.23,5.24a1.418,1.418,0,1,0,2-2.01Z" transform="translate(-539 -2526.06)"/>
</svg>
