<svg xmlns="http://www.w3.org/2000/svg" width="204" height="10">
    <path fill="#38383A" fill-rule="evenodd" d="M202.746 9.318a.98.98 0 0 1-1.384-.027l-5.936-6.146-5.94 6.148a.983.983 0 0 1-1.409 0l-5.942-6.148-5.939 6.148c-.37.38-1.04.38-1.409 0l-5.944-6.149-5.945 6.149a.975.975 0 0 1-.783.295.98.98 0 0 1-.776-.297l-5.936-6.146-5.94 6.148a.98.98 0 0 1-1.408 0l-5.942-6.148-5.94 6.148c-.369.38-1.04.38-1.409 0l-5.944-6.149-5.944 6.149a.976.976 0 0 1-.783.295.978.978 0 0 1-.776-.297l-5.936-6.146-5.94 6.148a.98.98 0 0 1-1.409 0l-5.942-6.148-5.939 6.148c-.369.38-1.04.38-1.409 0l-5.944-6.149-5.945 6.149a.974.974 0 0 1-.783.295.976.976 0 0 1-.775-.297l-5.936-6.146-5.94 6.148a.983.983 0 0 1-1.409 0l-5.942-6.148-5.94 6.148c-.369.38-1.04.38-1.409 0l-5.943-6.149-5.945 6.149a.978.978 0 0 1-1.279.11.978.978 0 0 1-1.28-.112l-5.936-6.146-5.94 6.148a.983.983 0 0 1-1.409 0l-5.942-6.148-5.94 6.148c-.369.38-1.04.38-1.409 0L7.753 3.144 1.808 9.293A.978.978 0 0 1 .399 7.936L7.048 1.06a.98.98 0 0 1 1.409 0l5.944 6.148 5.94-6.148c.369-.382 1.04-.382 1.409 0l5.941 6.148 5.94-6.148a.98.98 0 0 1 1.41.001l6.511 6.741 6.519-6.742a.98.98 0 0 1 1.409 0l5.944 6.148 5.94-6.148c.369-.382 1.04-.382 1.409 0l5.941 6.148 5.94-6.148a.98.98 0 0 1 1.41.001l6.011 6.223 6.019-6.224a.976.976 0 0 1 .704-.298c.266 0 .52.107.704.298l5.944 6.148 5.94-6.148c.369-.382 1.04-.382 1.409 0l5.942 6.148 5.94-6.148a.976.976 0 0 1 .704-.298c.266 0 .521.107.705.299l6.011 6.223 6.019-6.224a.98.98 0 0 1 1.409 0l5.944 6.148 5.939-6.148c.37-.382 1.04-.382 1.409 0l5.942 6.148 5.94-6.148a.978.978 0 0 1 1.41.001l6.01 6.223 6.02-6.224a.976.976 0 0 1 .704-.298c.266 0 .52.107.704.298l5.944 6.148 5.94-6.148c.369-.382 1.04-.382 1.409 0l5.941 6.148 5.941-6.148a.977.977 0 0 1 1.409.001l6.642 6.877a.974.974 0 0 1-.027 1.38z"/>
</svg>
