<svg id="Groupe_1" data-name="Groupe 1" xmlns="http://www.w3.org/2000/svg" width="407.75" height="315.03" viewBox="0 0 407.75 315.03">
  <defs>
    <style>
      .cls-1 {
        fill: #86babe;
        mix-blend-mode: multiply;
      }

      .cls-1, .cls-2, .cls-3, .cls-4, .cls-5, .cls-6, .cls-7, .cls-8, .cls-9 {
        fill-rule: evenodd;
      }

      .cls-2, .cls-7 {
        fill: #38383a;
      }

      .cls-3 {
        fill: #fff;
      }

      .cls-4, .cls-5 {
        fill: #b9dadc;
      }

      .cls-5, .cls-9 {
        fill-opacity: 0;
        stroke-width: 2px;
      }

      .cls-5, .cls-7, .cls-9 {
        stroke: #38383a;
        stroke-linejoin: round;
      }

      .cls-6 {
        fill: #ffe0f2;
      }

      .cls-7 {
        stroke-width: 1px;
      }

      .cls-8, .cls-9 {
        fill: #ffe450;
      }
    </style>
  </defs>
  <path id="FLAQUE_D_EAU" data-name="FLAQUE D&apos;EAU" class="cls-1" d="M554.153,4405.58c-6.525-11.42-16.649-14.94-26.29-22.27-11.745-8.92-19.648-15.39-16.6-26.65,4.941-18.24,7-63.07-69.793-58.3-27.794,1.73-50.227,14.58-66.819,27.6-14.241,11.18-39.238,11.92-59.53,14.38-25.053,3.02-50.815,7.75-74.552,14.85-49.425,14.79-65.85,36.8-66.323,65.49-0.144,8.75.663,22.61,23.161,38.98,30.535,22.21,77.025,25.19,133.282,15.02,12.773-2.31,24.868-5.93,37.372-8.64a263.852,263.852,0,0,1,39.826-5.44c31.327-1.89,63.558,1.65,93.327-4.25,15.653-3.1,29.962-8.78,41.157-16.31C556.27,4430.68,561.074,4417.69,554.153,4405.58Z" transform="translate(-174.25 -4297.97)"/>
  <path id="Forme_31" data-name="Forme 31" class="cls-2" d="M415.764,4586.99L571,4497.27v-12.82l-155.235,89.72v12.82Zm0-12.82V4587l-112.05-64.78-6.234-3.59v-0.01l-4.783-2.76-3.512-2.03L194,4458.81V4446l97.681,56.46,16.43,9.49Z" transform="translate(-174.25 -4297.97)"/>
  <path id="Forme_32" data-name="Forme 32" class="cls-2" d="M349,4356.39l221.876,127.86,11.121-6.4L360.1,4350Zm221.876,127.86,0.067,12.75L582,4490.63v-12.78Z" transform="translate(-174.25 -4297.97)"/>
  <path id="Forme_33" data-name="Forme 33" class="cls-3" d="M194,4446.76L349.235,4357,571,4485.23l-155.234,89.76Z" transform="translate(-174.25 -4297.97)"/>
  <path id="_..._copie" data-name="... copie" class="cls-2" d="M193.8,4466.66c0,0.92-1.3,1.67-2.905,1.67s-2.9-.75-2.9-1.67,1.3-1.67,2.9-1.67S193.8,4465.74,193.8,4466.66Zm8.808,5.34c0,0.92-1.3,1.67-2.9,1.67s-2.9-.75-2.9-1.67,1.3-1.67,2.9-1.67S202.61,4471.08,202.61,4472Zm9.378,5.34c0,0.92-1.3,1.67-2.9,1.67s-2.905-.75-2.905-1.67,1.3-1.67,2.905-1.67S211.988,4476.42,211.988,4477.34Z" transform="translate(-174.25 -4297.97)"/>
  <path id="_..._copie_2" data-name="... copie 2" class="cls-2" d="M220.611,4483c0,0.92-1.3,1.67-2.905,1.67s-2.9-.75-2.9-1.67,1.3-1.67,2.9-1.67S220.611,4482.08,220.611,4483Zm9.377,5.34c0,0.92-1.3,1.67-2.9,1.67s-2.905-.75-2.905-1.67,1.3-1.67,2.905-1.67S229.988,4487.42,229.988,4488.34Z" transform="translate(-174.25 -4297.97)"/>
  <path id="_..._copie_3" data-name="... copie 3" class="cls-2" d="M239.611,4494c0,0.92-1.3,1.67-2.905,1.67s-2.9-.75-2.9-1.67,1.3-1.67,2.9-1.67S239.611,4493.08,239.611,4494Zm9.377,5.34c0,0.92-1.3,1.67-2.9,1.67s-2.905-.75-2.905-1.67,1.3-1.67,2.905-1.67S248.988,4498.42,248.988,4499.34Z" transform="translate(-174.25 -4297.97)"/>
  <path id="_..._copie_4" data-name="... copie 4" class="cls-2" d="M257.611,4505c0,0.92-1.3,1.67-2.905,1.67s-2.9-.75-2.9-1.67,1.3-1.67,2.9-1.67S257.611,4504.08,257.611,4505Zm9.377,5.34c0,0.92-1.3,1.67-2.9,1.67s-2.905-.75-2.905-1.67,1.3-1.67,2.905-1.67S266.988,4509.42,266.988,4510.34Z" transform="translate(-174.25 -4297.97)"/>
  <path id="_..._copie_5" data-name="... copie 5" class="cls-2" d="M275.8,4515.66c0,0.92-1.3,1.67-2.905,1.67s-2.9-.75-2.9-1.67,1.3-1.67,2.9-1.67S275.8,4514.74,275.8,4515.66Zm8.809,5.34c0,0.92-1.3,1.67-2.9,1.67s-2.9-.75-2.9-1.67,1.3-1.67,2.9-1.67S284.611,4520.08,284.611,4521Zm9.377,5.34c0,0.92-1.3,1.67-2.9,1.67s-2.905-.75-2.905-1.67,1.3-1.67,2.905-1.67S293.988,4525.42,293.988,4526.34Z" transform="translate(-174.25 -4297.97)"/>
  <path id="_..._copie_6" data-name="... copie 6" class="cls-2" d="M302.611,4532c0,0.92-1.3,1.67-2.9,1.67s-2.9-.75-2.9-1.67,1.3-1.67,2.9-1.67S302.611,4531.08,302.611,4532Zm9.377,5.34c0,0.92-1.3,1.67-2.9,1.67s-2.905-.75-2.905-1.67,1.3-1.67,2.905-1.67S311.988,4536.42,311.988,4537.34Z" transform="translate(-174.25 -4297.97)"/>
  <path id="_..._copie_7" data-name="... copie 7" class="cls-2" d="M321.611,4543c0,0.92-1.3,1.67-2.9,1.67s-2.9-.75-2.9-1.67,1.3-1.67,2.9-1.67S321.611,4542.08,321.611,4543Zm9.377,5.34c0,0.92-1.3,1.67-2.9,1.67s-2.905-.75-2.905-1.67,1.3-1.67,2.905-1.67S330.988,4547.42,330.988,4548.34Z" transform="translate(-174.25 -4297.97)"/>
  <path id="_..._copie_8" data-name="... copie 8" class="cls-2" d="M339.611,4554c0,0.92-1.3,1.67-2.9,1.67s-2.9-.75-2.9-1.67,1.3-1.67,2.9-1.67S339.611,4553.08,339.611,4554Zm9.377,5.34c0,0.92-1.3,1.67-2.9,1.67s-2.905-.75-2.905-1.67,1.3-1.67,2.905-1.67S348.988,4558.42,348.988,4559.34Z" transform="translate(-174.25 -4297.97)"/>
  <path id="_..._copie_9" data-name="... copie 9" class="cls-2" d="M348.611,4559c0,0.92-1.3,1.67-2.9,1.67s-2.9-.75-2.9-1.67,1.3-1.67,2.9-1.67S348.611,4558.08,348.611,4559Zm9.377,5.34c0,0.92-1.3,1.67-2.9,1.67s-2.905-.75-2.905-1.67,1.3-1.67,2.905-1.67S357.988,4563.42,357.988,4564.34Z" transform="translate(-174.25 -4297.97)"/>
  <path id="_..._copie_10" data-name="... copie 10" class="cls-2" d="M367.611,4570c0,0.92-1.3,1.67-2.9,1.67s-2.9-.75-2.9-1.67,1.3-1.67,2.9-1.67S367.611,4569.08,367.611,4570Zm9.377,5.34c0,0.92-1.3,1.67-2.9,1.67s-2.905-.75-2.905-1.67,1.3-1.67,2.905-1.67S376.988,4574.42,376.988,4575.34Z" transform="translate(-174.25 -4297.97)"/>
  <path id="_..._copie_11" data-name="... copie 11" class="cls-2" d="M385.611,4581c0,0.92-1.3,1.67-2.9,1.67s-2.9-.75-2.9-1.67,1.3-1.67,2.9-1.67S385.611,4580.08,385.611,4581Zm9.377,5.34c0,0.92-1.3,1.67-2.9,1.67s-2.905-.75-2.905-1.67,1.3-1.67,2.905-1.67S394.988,4585.42,394.988,4586.34Z" transform="translate(-174.25 -4297.97)"/>
  <path id="_..._copie_12" data-name="... copie 12" class="cls-2" d="M394.611,4586c0,0.92-1.3,1.67-2.9,1.67s-2.9-.75-2.9-1.67,1.3-1.67,2.9-1.67S394.611,4585.08,394.611,4586Zm9.377,5.34c0,0.92-1.3,1.67-2.9,1.67s-2.905-.75-2.905-1.67,1.3-1.67,2.905-1.67S403.988,4590.42,403.988,4591.34Z" transform="translate(-174.25 -4297.97)"/>
  <path id="_..._copie_13" data-name="... copie 13" class="cls-2" d="M412.611,4597c0,0.92-1.3,1.67-2.9,1.67s-2.9-.75-2.9-1.67,1.3-1.67,2.9-1.67S412.611,4596.08,412.611,4597Zm9.377,5.34c0,0.92-1.3,1.67-2.9,1.67s-2.905-.75-2.905-1.67,1.3-1.67,2.905-1.67S421.988,4601.42,421.988,4602.34Z" transform="translate(-174.25 -4297.97)"/>
  <path id="_..._copie_14" data-name="... copie 14" class="cls-2" d="M189.8,4475.66c0,0.92-1.3,1.67-2.905,1.67s-2.9-.75-2.9-1.67,1.3-1.67,2.9-1.67S189.8,4474.74,189.8,4475.66Zm8.809,5.34c0,0.92-1.3,1.67-2.905,1.67s-2.9-.75-2.9-1.67,1.3-1.67,2.9-1.67S198.611,4480.08,198.611,4481Zm9.377,5.34c0,0.92-1.3,1.67-2.9,1.67s-2.905-.75-2.905-1.67,1.3-1.67,2.905-1.67S207.988,4485.42,207.988,4486.34Z" transform="translate(-174.25 -4297.97)"/>
  <path id="_..._copie_15" data-name="... copie 15" class="cls-2" d="M216.61,4492c0,0.92-1.3,1.67-2.9,1.67s-2.9-.75-2.9-1.67,1.3-1.67,2.9-1.67S216.61,4491.08,216.61,4492Zm9.378,5.34c0,0.92-1.3,1.67-2.9,1.67s-2.905-.75-2.905-1.67,1.3-1.67,2.905-1.67S225.988,4496.42,225.988,4497.34Z" transform="translate(-174.25 -4297.97)"/>
  <path id="_..._copie_16" data-name="... copie 16" class="cls-2" d="M235.611,4503c0,0.92-1.3,1.67-2.905,1.67s-2.9-.75-2.9-1.67,1.3-1.67,2.9-1.67S235.611,4502.08,235.611,4503Zm9.377,5.34c0,0.92-1.3,1.67-2.9,1.67s-2.905-.75-2.905-1.67,1.3-1.67,2.905-1.67S244.988,4507.42,244.988,4508.34Z" transform="translate(-174.25 -4297.97)"/>
  <path id="_..._copie_17" data-name="... copie 17" class="cls-2" d="M253.611,4514c0,0.92-1.3,1.67-2.905,1.67s-2.9-.75-2.9-1.67,1.3-1.67,2.9-1.67S253.611,4513.08,253.611,4514Zm9.377,5.34c0,0.92-1.3,1.67-2.9,1.67s-2.905-.75-2.905-1.67,1.3-1.67,2.905-1.67S262.988,4518.42,262.988,4519.34Z" transform="translate(-174.25 -4297.97)"/>
  <path id="_..._copie_18" data-name="... copie 18" class="cls-2" d="M271.8,4524.66c0,0.92-1.3,1.67-2.905,1.67s-2.9-.75-2.9-1.67,1.3-1.67,2.9-1.67S271.8,4523.74,271.8,4524.66Zm8.809,5.34c0,0.92-1.3,1.67-2.9,1.67s-2.9-.75-2.9-1.67,1.3-1.67,2.9-1.67S280.611,4529.08,280.611,4530Zm9.377,5.34c0,0.92-1.3,1.67-2.9,1.67s-2.905-.75-2.905-1.67,1.3-1.67,2.905-1.67S289.988,4534.42,289.988,4535.34Z" transform="translate(-174.25 -4297.97)"/>
  <path id="_..._copie_19" data-name="... copie 19" class="cls-2" d="M298.611,4541c0,0.92-1.3,1.67-2.9,1.67s-2.9-.75-2.9-1.67,1.3-1.67,2.9-1.67S298.611,4540.08,298.611,4541Zm9.377,5.34c0,0.92-1.3,1.67-2.9,1.67s-2.905-.75-2.905-1.67,1.3-1.67,2.905-1.67S307.988,4545.42,307.988,4546.34Z" transform="translate(-174.25 -4297.97)"/>
  <path id="_..._copie_20" data-name="... copie 20" class="cls-2" d="M317.611,4552c0,0.92-1.3,1.67-2.9,1.67s-2.9-.75-2.9-1.67,1.3-1.67,2.9-1.67S317.611,4551.08,317.611,4552Zm9.377,5.34c0,0.92-1.3,1.67-2.9,1.67s-2.905-.75-2.905-1.67,1.3-1.67,2.905-1.67S326.988,4556.42,326.988,4557.34Z" transform="translate(-174.25 -4297.97)"/>
  <path id="_..._copie_21" data-name="... copie 21" class="cls-2" d="M335.611,4563c0,0.92-1.3,1.67-2.9,1.67s-2.9-.75-2.9-1.67,1.3-1.67,2.9-1.67S335.611,4562.08,335.611,4563Zm9.377,5.34c0,0.92-1.3,1.67-2.9,1.67s-2.905-.75-2.905-1.67,1.3-1.67,2.905-1.67S344.988,4567.42,344.988,4568.34Z" transform="translate(-174.25 -4297.97)"/>
  <path id="_..._copie_22" data-name="... copie 22" class="cls-2" d="M344.611,4568c0,0.92-1.3,1.67-2.9,1.67s-2.9-.75-2.9-1.67,1.3-1.67,2.9-1.67S344.611,4567.08,344.611,4568Zm9.377,5.34c0,0.92-1.3,1.67-2.9,1.67s-2.905-.75-2.905-1.67,1.3-1.67,2.905-1.67S353.988,4572.42,353.988,4573.34Z" transform="translate(-174.25 -4297.97)"/>
  <path id="_..._copie_23" data-name="... copie 23" class="cls-2" d="M363.611,4579c0,0.92-1.3,1.67-2.9,1.67s-2.9-.75-2.9-1.67,1.3-1.67,2.9-1.67S363.611,4578.08,363.611,4579Zm9.377,5.34c0,0.92-1.3,1.67-2.9,1.67s-2.905-.75-2.905-1.67,1.3-1.67,2.905-1.67S372.988,4583.42,372.988,4584.34Z" transform="translate(-174.25 -4297.97)"/>
  <path id="_..._copie_24" data-name="... copie 24" class="cls-2" d="M381.611,4590c0,0.92-1.3,1.67-2.9,1.67s-2.9-.75-2.9-1.67,1.3-1.67,2.9-1.67S381.611,4589.08,381.611,4590Zm9.377,5.34c0,0.92-1.3,1.67-2.9,1.67s-2.905-.75-2.905-1.67,1.3-1.67,2.905-1.67S390.988,4594.42,390.988,4595.34Z" transform="translate(-174.25 -4297.97)"/>
  <path id="_..._copie_25" data-name="... copie 25" class="cls-2" d="M390.611,4595c0,0.92-1.3,1.67-2.9,1.67s-2.9-.75-2.9-1.67,1.3-1.67,2.9-1.67S390.611,4594.08,390.611,4595Zm9.377,5.34c0,0.92-1.3,1.67-2.9,1.67s-2.905-.75-2.905-1.67,1.3-1.67,2.905-1.67S399.988,4599.42,399.988,4600.34Z" transform="translate(-174.25 -4297.97)"/>
  <path id="_..._copie_26" data-name="... copie 26" class="cls-2" d="M408.611,4606c0,0.92-1.3,1.67-2.9,1.67s-2.9-.75-2.9-1.67,1.3-1.67,2.9-1.67S408.611,4605.08,408.611,4606Zm9.377,5.34c0,0.92-1.3,1.67-2.9,1.67s-2.905-.75-2.905-1.67,1.3-1.67,2.905-1.67S417.988,4610.42,417.988,4611.34Z" transform="translate(-174.25 -4297.97)"/>
  <path id="_..._copie_26-2" data-name="... copie 26" class="cls-2" d="M427.611,4593c0,0.92-1.3,1.67-2.9,1.67s-2.9-.75-2.9-1.67,1.3-1.67,2.9-1.67S427.611,4592.08,427.611,4593Zm9.377,5.34c0,0.92-1.3,1.67-2.9,1.67s-2.905-.75-2.905-1.67,1.3-1.67,2.905-1.67S436.988,4597.42,436.988,4598.34Z" transform="translate(-174.25 -4297.97)"/>
  <path id="_..._copie_27" data-name="... copie 27" class="cls-2" d="M441.611,4590c0,0.92-1.3,1.67-2.9,1.67s-2.9-.75-2.9-1.67,1.3-1.67,2.9-1.67S441.611,4589.08,441.611,4590Zm9.377,5.34c0,0.92-1.3,1.67-2.9,1.67s-2.905-.75-2.905-1.67,1.3-1.67,2.905-1.67S450.988,4594.42,450.988,4595.34Z" transform="translate(-174.25 -4297.97)"/>
  <path id="_..._copie_34" data-name="... copie 34" class="cls-2" d="M441.611,4590c0,0.92-1.3,1.67-2.9,1.67s-2.9-.75-2.9-1.67,1.3-1.67,2.9-1.67S441.611,4589.08,441.611,4590Zm-10.623,16.34c0,0.92-1.3,1.67-2.9,1.67s-2.905-.75-2.905-1.67,1.3-1.67,2.905-1.67S430.988,4605.42,430.988,4606.34Z" transform="translate(-174.25 -4297.97)"/>
  <path id="_..._copie_28" data-name="... copie 28" class="cls-2" d="M447.611,4580c0,0.92-1.3,1.67-2.9,1.67s-2.9-.75-2.9-1.67,1.3-1.67,2.9-1.67S447.611,4579.08,447.611,4580Zm9.377,5.34c0,0.92-1.3,1.67-2.9,1.67s-2.905-.75-2.905-1.67,1.3-1.67,2.905-1.67S456.988,4584.42,456.988,4585.34Z" transform="translate(-174.25 -4297.97)"/>
  <path id="_..._copie_29" data-name="... copie 29" class="cls-2" d="M461.611,4577c0,0.92-1.3,1.67-2.9,1.67s-2.9-.75-2.9-1.67,1.3-1.67,2.9-1.67S461.611,4576.08,461.611,4577Zm9.377,5.34c0,0.92-1.3,1.67-2.9,1.67s-2.905-.75-2.905-1.67,1.3-1.67,2.905-1.67S470.988,4581.42,470.988,4582.34Z" transform="translate(-174.25 -4297.97)"/>
  <path id="_..._copie_30" data-name="... copie 30" class="cls-2" d="M466.611,4567c0,0.92-1.3,1.67-2.9,1.67s-2.9-.75-2.9-1.67,1.3-1.67,2.9-1.67S466.611,4566.08,466.611,4567Zm9.377,5.34c0,0.92-1.3,1.67-2.9,1.67s-2.905-.75-2.905-1.67,1.3-1.67,2.905-1.67S475.988,4571.42,475.988,4572.34Z" transform="translate(-174.25 -4297.97)"/>
  <path id="_..._copie_31" data-name="... copie 31" class="cls-2" d="M480.611,4564c0,0.92-1.3,1.67-2.9,1.67s-2.9-.75-2.9-1.67,1.3-1.67,2.9-1.67S480.611,4563.08,480.611,4564Zm9.377,5.34c0,0.92-1.3,1.67-2.9,1.67s-2.905-.75-2.905-1.67,1.3-1.67,2.905-1.67S489.988,4568.42,489.988,4569.34Z" transform="translate(-174.25 -4297.97)"/>
  <path id="_..._copie_32" data-name="... copie 32" class="cls-2" d="M486.611,4554c0,0.92-1.3,1.67-2.9,1.67s-2.9-.75-2.9-1.67,1.3-1.67,2.9-1.67S486.611,4553.08,486.611,4554Zm9.377,5.34c0,0.92-1.3,1.67-2.9,1.67s-2.905-.75-2.905-1.67,1.3-1.67,2.905-1.67S495.988,4558.42,495.988,4559.34Z" transform="translate(-174.25 -4297.97)"/>
  <path id="_..._copie_33" data-name="... copie 33" class="cls-2" d="M500.611,4551c0,0.92-1.3,1.67-2.9,1.67s-2.9-.75-2.9-1.67,1.3-1.67,2.9-1.67S500.611,4550.08,500.611,4551Zm9.377,5.34c0,0.92-1.3,1.67-2.9,1.67s-2.905-.75-2.905-1.67,1.3-1.67,2.905-1.67S509.988,4555.42,509.988,4556.34Z" transform="translate(-174.25 -4297.97)"/>
  <path id="_..." data-name="..." class="cls-3" d="M363.8,4356.66c0,0.92-1.3,1.67-2.905,1.67s-2.9-.75-2.9-1.67,1.3-1.67,2.9-1.67S363.8,4355.74,363.8,4356.66Zm5.809,3.34c0,0.92-1.3,1.67-2.9,1.67s-2.9-.75-2.9-1.67,1.3-1.67,2.9-1.67S369.611,4359.08,369.611,4360Zm6.377,3.34c0,0.92-1.3,1.67-2.9,1.67s-2.905-.75-2.905-1.67,1.3-1.67,2.905-1.67S375.988,4362.42,375.988,4363.34Z" transform="translate(-174.25 -4297.97)"/>
  <path id="Forme_34" data-name="Forme 34" class="cls-4" d="M279.454,4416.96L346,4454.99l-55.454,31.98L224,4448.78Z" transform="translate(-174.25 -4297.97)"/>
  <path id="Forme_34_copie" data-name="Forme 34 copie" class="cls-5" d="M289.454,4416.96L356,4454.99l-55.454,31.98L234,4448.78Z" transform="translate(-174.25 -4297.97)"/>
  <path id="Forme_36" data-name="Forme 36" class="cls-2" d="M307.9,4452.27c0,5.26-6.486,9.52-14.488,9.52s-14.488-4.26-14.488-9.52,6.487-9.51,14.488-9.51S307.9,4447.02,307.9,4452.27Z" transform="translate(-174.25 -4297.97)"/>
  <path id="Forme_37" data-name="Forme 37" class="cls-3" d="M285.733,4454.28l11.43-6.15,2.527,7.06Z" transform="translate(-174.25 -4297.97)"/>
  <path id="Forme_34_copie_2" data-name="Forme 34 copie 2" class="cls-6" d="M437.41,4426.99l89.468,53.23L450.468,4525,361,4471.62Z" transform="translate(-174.25 -4297.97)"/>
  <path id="Forme_34_copie_3" data-name="Forme 34 copie 3" class="cls-5" d="M448.531,4426.99L539,4480.22,462.589,4525l-90.468-53.38Z" transform="translate(-174.25 -4297.97)"/>
  <path id="Forme_57" data-name="Forme 57" class="cls-2" d="M447.193,4428.07l1.834-.27,13.9,95.2-1.833.27Z" transform="translate(-174.25 -4297.97)"/>
  <path id="Forme_58" data-name="Forme 58" class="cls-2" d="M375.773,4471.8l0.108-1.87,158.466,9.34-0.108,1.86Z" transform="translate(-174.25 -4297.97)"/>
  <path id="Forme_34_copie_4" data-name="Forme 34 copie 4" class="cls-5" d="M358.6,4371l24.4,14.12L362.4,4397,338,4382.84Z" transform="translate(-174.25 -4297.97)"/>
  <path id="Forme_57_copie" data-name="Forme 57 copie" class="cls-7" d="M358.243,4371.28l0.494-.07,3.749,25.26-0.5.07Z" transform="translate(-174.25 -4297.97)"/>
  <path id="Forme_58_copie" data-name="Forme 58 copie" class="cls-7" d="M338.984,4382.88l0.029-.49,42.732,2.48-0.029.49Z" transform="translate(-174.25 -4297.97)"/>
  <path id="Forme_56_copie" data-name="Forme 56 copie" class="cls-2" d="M376.708,4396.4l38.555,22.09,2.112-1.31-38.752-22.01Zm-3.38,2.43,38.554,22.09,2.112-1.3-38.752-22.02Zm7-4.86,38.555,22.09,2.111-1.31-38.752-22.01Z" transform="translate(-174.25 -4297.97)"/>
  <path id="Forme_52" data-name="Forme 52" class="cls-8" d="M338.45,4475.01l-33.463,19.27L349.57,4520l33.437-19.29Z" transform="translate(-174.25 -4297.97)"/>
  <path id="Forme_53" data-name="Forme 53" class="cls-9" d="M374.988,4506.76l-15.958,9.21L319,4492.84l11.188-6.45,12.855,0.96,3.07,9.96,28.357,0.58Zm-18.043-20.44c0,1.3-1.859,2.35-4.151,2.35s-4.151-1.05-4.151-2.35,1.858-2.34,4.151-2.34S356.945,4485.03,356.945,4486.32Z" transform="translate(-174.25 -4297.97)"/>
  <path id="Forme_52_copie" data-name="Forme 52 copie" class="cls-8" d="M395.45,4507.01l-33.463,19.27L406.57,4552l33.437-19.29Z" transform="translate(-174.25 -4297.97)"/>
  <path id="Forme_53_copie" data-name="Forme 53 copie" class="cls-9" d="M431.988,4538.76l-15.958,9.21L376,4524.84l11.188-6.45,12.855,0.96,3.07,9.96,28.358,0.58Zm-18.043-20.44c0,1.3-1.859,2.35-4.151,2.35s-4.151-1.05-4.151-2.35,1.858-2.34,4.151-2.34S413.945,4517.03,413.945,4518.32Z" transform="translate(-174.25 -4297.97)"/>
  <path id="Forme_55" data-name="Forme 55" class="cls-8" d="M390.821,4428.21l-66.44-36.67a3.283,3.283,0,0,0-3.266,0l-19.937,11.45a3.242,3.242,0,0,0,0,5.63l54.8,29.95v6.76a1.479,1.479,0,0,0,1.812,1.43l8.765-2.12,1.078,0.62a3.323,3.323,0,0,0,3.261,0l19.917-11.42A3.241,3.241,0,0,0,390.821,4428.21Z" transform="translate(-174.25 -4297.97)"/>
</svg>
