<?xml version="1.0" encoding="UTF-8"?>
<svg xmlns="http://www.w3.org/2000/svg" xmlns:xlink="http://www.w3.org/1999/xlink" width="474pt" height="347pt" viewBox="0 0 474 347" version="1.1">
<g id="surface1">
<path style=" stroke:none;fill-rule:evenodd;fill:rgb(10.980392%,15.686275%,25.490196%);fill-opacity:1;" d="M 473.59375 62.914062 L 425.574219 187.710938 L 425.574219 204.738281 L 419.019531 204.738281 L 364.378906 346.742188 L 46.09375 223.726562 C 42.871094 219.597656 40.421875 215.117188 38.675781 210.40625 L 10.941406 199.6875 C -16.050781 165.113281 10.765625 106.019531 56.101562 92.867188 C 68.53125 89.253906 80.652344 84.050781 91.050781 76.558594 C 115.027344 59.304688 122.546875 23.691406 150.085938 12.472656 C 181.953125 -0.515625 217.800781 27.734375 252.257812 23.835938 C 267.96875 22.066406 281.847656 13.753906 296.507812 8.148438 C 343.265625 -9.703125 400.742188 2.917969 437.132812 37.710938 C 450.601562 44.0625 463.027344 52.53125 473.59375 62.914062 Z M 473.59375 62.914062 "/>
</g>
</svg>
