<svg 
 xmlns="http://www.w3.org/2000/svg"
 xmlns:xlink="http://www.w3.org/1999/xlink"
 width="1125px" height="822px">
<path fill-rule="evenodd"  fill="rgb(28, 40, 65)"
 d="M1124.035,149.036 L1010.062,444.663 L1010.062,484.999 L994.512,484.999 L864.824,821.388 L109.403,529.982 C101.752,520.200 95.942,509.583 91.791,498.428 L25.968,473.036 C-38.091,391.130 25.548,251.148 133.151,219.989 C162.654,211.430 191.421,199.108 216.101,181.355 C273.010,140.490 290.855,56.123 356.212,29.548 C431.848,-1.225 516.928,65.697 598.712,56.469 C636.004,52.272 668.941,32.583 703.737,19.303 C814.716,-22.985 951.129,6.910 1037.503,89.332 C1069.470,104.376 1098.958,124.437 1124.035,149.036 Z"/>
</svg>